<svg width="80" height="20" viewBox="0 0 80 20" fill="none" xmlns="http://www.w3.org/2000/svg">
<mask id="mask0_1179_14371" style="mask-type:alpha" maskUnits="userSpaceOnUse" x="0" y="0" width="80" height="20">
<rect width="80" height="20" fill="#C4C4C4"/>
</mask>
<g mask="url(#mask0_1179_14371)">
<path d="M33.9224 12.5528C33.6244 13.5784 33.0759 14.375 32.2769 14.9423C31.4778 15.5097 30.5269 15.7937 29.424 15.7943C27.949 15.7943 26.7625 15.3372 25.8645 14.4231C24.9666 13.5089 24.5176 12.299 24.5176 10.7934C24.5176 9.31129 24.9698 8.0888 25.8742 7.12594C26.7787 6.16308 27.931 5.68136 29.3313 5.68077C30.7804 5.68077 31.9327 6.17188 32.7883 7.15411C33.6439 8.13633 34.0714 9.46678 34.0708 11.1455V11.4042H27.1965C27.2088 12.2316 27.4102 12.8614 27.8006 13.2939C28.191 13.7263 28.7392 13.9422 29.4452 13.9416C30.3744 13.9416 31.025 13.4787 31.3972 12.5528H33.9224ZM31.3945 9.73639C31.3356 9.10681 31.131 8.59135 30.7807 8.19001C30.4303 7.78867 29.9472 7.58801 29.3313 7.58801C29.0632 7.58008 28.7963 7.62691 28.547 7.72559C28.2978 7.82428 28.0714 7.97274 27.8819 8.16185C27.4979 8.545 27.2686 9.06985 27.1938 9.73639H31.3945Z" fill="#4F8FC0"/>
<path d="M41.1517 9.29281V11.6454H35.5582V9.29281H41.1517Z" fill="#4F8FC0"/>
<path d="M57.9184 15.5162H55.2413V9.81121C55.2413 9.18221 55.1424 8.69755 54.9445 8.35724C54.7467 8.01692 54.3377 7.84735 53.7177 7.84852C52.4906 7.84852 51.877 8.61394 51.877 10.1448V15.5135H49.2379V9.70031C49.2379 9.10769 49.1386 8.64768 48.9402 8.32027C48.7418 7.99287 48.359 7.82946 47.792 7.83004C46.516 7.83004 45.8777 8.66352 45.8771 10.3305V15.5162H43.2344V5.95889H45.7446V7.2738C46.4995 6.22469 47.5155 5.70013 48.7927 5.70013C50.1182 5.70013 51.0229 6.22469 51.5069 7.2738C52.2724 6.22469 53.3193 5.70013 54.6477 5.70013C55.7006 5.70013 56.509 6.00554 57.0731 6.61635C57.6372 7.22715 57.9193 8.05154 57.9193 9.0895L57.9184 15.5162Z" fill="#4F8FC0"/>
<path d="M68.9961 12.5528C68.6981 13.5784 68.1499 14.375 67.3515 14.9423C66.553 15.5097 65.6018 15.7937 64.4977 15.7943C63.0227 15.7943 61.8362 15.3372 60.9382 14.4231C60.0403 13.5089 59.5913 12.299 59.5913 10.7934C59.5913 9.31129 60.0435 8.0888 60.9479 7.12594C61.8524 6.16308 63.0047 5.68136 64.405 5.68077C65.8547 5.68077 67.007 6.17188 67.862 7.15411C68.717 8.13633 69.1445 9.46678 69.1445 11.1455V11.4042H62.2675C62.2799 12.2316 62.4812 12.8614 62.8716 13.2939C63.262 13.7263 63.8102 13.9422 64.5163 13.9416C65.446 13.9416 66.0967 13.4787 66.4682 12.5528H68.9961ZM66.4682 9.73639C66.4064 9.10681 66.2003 8.59135 65.8499 8.19001C65.4996 7.78867 65.0165 7.58801 64.4005 7.58801C64.1324 7.58008 63.8656 7.62691 63.6163 7.72559C63.367 7.82428 63.1407 7.97274 62.9511 8.16185C62.5672 8.545 62.3379 9.06985 62.2631 9.73639H66.4682Z" fill="#4F8FC0"/>
<path d="M79.9996 15.5162H77.5088V14.2937C76.877 15.2818 75.9104 15.7758 74.6091 15.7758C73.2836 15.7758 72.2273 15.3158 71.44 14.3958C70.6527 13.4758 70.2594 12.2436 70.26 10.6993C70.26 9.19306 70.641 7.98318 71.4029 7.06961C72.1649 6.15604 73.1841 5.69925 74.4607 5.69925C75.0407 5.69684 75.614 5.82311 76.1389 6.06891C76.6469 6.30008 77.0765 6.67345 77.3754 7.14354V2.32837H79.996L79.9996 15.5162ZM77.4717 10.7186C77.4717 9.79273 77.2703 9.07044 76.8676 8.55175C76.4648 8.03306 75.9054 7.77401 75.1894 7.77459C74.4704 7.77459 73.9128 8.03365 73.5165 8.55175C73.1202 9.06985 72.9218 9.78598 72.9212 10.7001C72.9212 11.6266 73.1226 12.3521 73.5254 12.8767C73.9281 13.4012 74.4828 13.6638 75.1894 13.6644C75.9195 13.6644 76.4833 13.408 76.8808 12.8952C77.2783 12.3823 77.4752 11.6568 77.4717 10.7186Z" fill="#4F8FC0"/>
<path d="M14.0003 16.576C12.755 15.6369 13.0517 16.7141 13.0517 16.7141C13.1639 17.7254 13.3282 20.4679 9.53111 20.8226C5.73403 21.1773 3.08341 16.3392 9.33414 14.4478C14.9277 12.758 15.0081 10.8763 14.9613 10.5004C15.0063 10.1246 14.9277 8.24644 9.33414 6.55307C3.08429 4.6608 5.73403 -0.179898 9.53199 0.178314C13.3299 0.536525 13.1648 3.27548 13.0526 4.28675C13.0526 4.28675 12.7558 5.36402 14.0012 4.42493C14.0012 4.42493 15.7023 3.1241 15.7023 1.78455C15.7023 0.444992 15.7023 -2 8.34579 -2C0.989236 -2 0.000883098 1.11829 0.000883098 2.27213C0.000883098 3.19803 0.955671 6.03996 9.40038 8.78507H9.39244C9.66131 8.8815 9.9141 9.01769 10.1423 9.18905C11.0812 9.89931 11.1095 11.3339 9.7846 12.0451C9.71659 12.0812 9.3889 12.2132 9.3103 12.2387H9.32001C0.947723 14.9644 0 17.5106 0 18.6249C0 19.6388 0.988352 23 8.34491 23C15.7015 23 15.7015 20.5585 15.7015 19.2155C15.7015 17.8724 14.0003 16.576 14.0003 16.576Z" fill="#53D2DC"/>
<path d="M4.3636 8.5712C4.70719 7.67875 3.48036 8.13113 3.48036 8.13113C3.48036 8.13113 1.17773 8.99101 1.17773 10.5717C1.1795 12.1419 3.48212 13.0132 3.48212 13.0132C3.48212 13.0132 4.83261 13.4128 4.36537 12.5731C4.02532 11.9641 3.67025 11.4422 3.56426 11.0312C3.48649 10.7295 3.48649 10.4131 3.56426 10.1114C3.66849 9.70216 4.11364 9.22161 4.3636 8.5712Z" fill="#4F8FC0"/>
</g>
</svg>
