<svg width="24" height="24" viewBox="0 0 24 24" fill="none" xmlns="http://www.w3.org/2000/svg">
<path d="M3 3L21 21" stroke="black" stroke-width="2" stroke-linecap="round" stroke-linejoin="round"/>
<path d="M14.828 9.17212C15.5782 9.92209 15.9998 10.9393 16 12.0001" stroke="black" stroke-width="2" stroke-linecap="round" stroke-linejoin="round"/>
<path d="M17.657 6.34302C18.8068 7.4923 19.5792 8.96463 19.8713 10.5639C20.1634 12.1632 19.9613 13.8135 19.292 15.295" stroke="black" stroke-width="2" stroke-linecap="round" stroke-linejoin="round"/>
<path d="M9.168 14.8281C8.41812 14.078 7.99686 13.0608 7.99686 12.0001C7.99686 10.9395 8.41812 9.92223 9.168 9.17212" stroke="black" stroke-width="2" stroke-linecap="round" stroke-linejoin="round"/>
<path d="M6.337 17.657C5.59409 16.9141 5.00478 16.0322 4.60272 15.0616C4.20065 14.0909 3.99371 13.0506 3.99371 12C3.99371 10.9494 4.20065 9.90909 4.60272 8.93846C5.00478 7.96782 5.59409 7.08589 6.337 6.34302" stroke="black" stroke-width="2" stroke-linecap="round" stroke-linejoin="round"/>
</svg>
