<svg width="24" height="24" viewBox="0 0 24 24" fill="none" xmlns="http://www.w3.org/2000/svg">
<path d="M9 20.0001V12.0001H5.414C5.21625 12.0001 5.02295 11.9414 4.85854 11.8315C4.69413 11.7216 4.56599 11.5654 4.49032 11.3827C4.41465 11.2 4.39485 10.999 4.43342 10.8051C4.47199 10.6111 4.56719 10.4329 4.707 10.2931L11.293 3.70709C11.4805 3.51962 11.7348 3.41431 12 3.41431C12.2652 3.41431 12.5195 3.51962 12.707 3.70709L19.293 10.2931C19.4328 10.4329 19.528 10.6111 19.5666 10.8051C19.6052 10.999 19.5853 11.2 19.5097 11.3827C19.434 11.5654 19.3059 11.7216 19.1415 11.8315C18.9771 11.9414 18.7838 12.0001 18.586 12.0001H15V20.0001C15 20.2653 14.8946 20.5197 14.7071 20.7072C14.5196 20.8947 14.2652 21.0001 14 21.0001H10C9.73479 21.0001 9.48043 20.8947 9.2929 20.7072C9.10536 20.5197 9 20.2653 9 20.0001V20.0001Z" stroke="black" stroke-width="2" stroke-linecap="round" stroke-linejoin="round"/>
</svg>
