<svg width="24" height="24" viewBox="0 0 24 24" fill="none" xmlns="http://www.w3.org/2000/svg">
<path d="M12 12V12.01" stroke="black" stroke-width="2" stroke-linecap="round" stroke-linejoin="round"/>
<path d="M19.0711 4.92901C18.3209 4.17887 16.8565 4.20443 15 5.00008C13.1435 5.79573 11.0469 7.29629 9.17158 9.17165C7.29621 11.047 5.79565 13.1436 5 15.0001C4.20436 16.8566 4.17879 18.321 4.92894 19.0711C5.67908 19.8213 7.14349 19.7957 9 19.0001C10.8565 18.2044 12.9531 16.7039 14.8284 14.8285C15.757 13.8999 16.6034 12.9073 17.3191 11.9072C18.0349 10.9072 18.606 9.91933 19 9.00008C19.394 8.08083 19.603 7.24817 19.6152 6.54966C19.6274 5.85114 19.4425 5.30045 19.0711 4.92901" stroke="black" stroke-width="2" stroke-linecap="round" stroke-linejoin="round"/>
<path d="M4.92893 4.9289C4.17878 5.67904 4.20435 7.14345 5 8.99997C5.79565 10.8565 7.29621 12.953 9.17157 14.8284C11.0469 16.7038 13.1435 18.2043 15 19C16.8565 19.7956 18.3209 19.8212 19.0711 19.071C19.8212 18.3209 19.7956 16.8565 19 15C18.2043 13.1434 16.7038 11.0469 14.8284 9.17154C13.8998 8.24295 12.9072 7.39662 11.9071 6.68086C10.9071 5.9651 9.91925 5.39393 9 4.99996C8.08074 4.606 7.24809 4.39695 6.54957 4.38476C5.85106 4.37256 5.30036 4.55746 4.92893 4.9289" stroke="black" stroke-width="2" stroke-linecap="round" stroke-linejoin="round"/>
</svg>
