<svg width="24" height="24" viewBox="0 0 24 24" fill="none" xmlns="http://www.w3.org/2000/svg">
<path d="M4 19C5.10457 19 6 18.1046 6 17C6 15.8954 5.10457 15 4 15C2.89543 15 2 15.8954 2 17C2 18.1046 2.89543 19 4 19Z" stroke="black" stroke-width="2" stroke-linecap="round" stroke-linejoin="round"/>
<path d="M13 19C14.1046 19 15 18.1046 15 17C15 15.8954 14.1046 15 13 15C11.8954 15 11 15.8954 11 17C11 18.1046 11.8954 19 13 19Z" stroke="black" stroke-width="2" stroke-linecap="round" stroke-linejoin="round"/>
<path d="M13 19H4" stroke="black" stroke-width="2" stroke-linecap="round" stroke-linejoin="round"/>
<path d="M4 15H13" stroke="black" stroke-width="2" stroke-linecap="round" stroke-linejoin="round"/>
<path d="M8 12V7H10C10.7956 7 11.5587 7.31607 12.1213 7.87868C12.6839 8.44129 13 9.20435 13 10V15" stroke="black" stroke-width="2" stroke-linecap="round" stroke-linejoin="round"/>
<path d="M5 15V13C5 12.7348 5.10536 12.4804 5.29289 12.2929C5.48043 12.1054 5.73478 12 6 12H13" stroke="black" stroke-width="2" stroke-linecap="round" stroke-linejoin="round"/>
<path d="M21.12 9.88L18 5L13 10" stroke="black" stroke-width="2" stroke-linecap="round" stroke-linejoin="round"/>
<path d="M21.12 9.87988C21.539 10.2994 21.8243 10.8337 21.9399 11.4153C22.0554 11.9969 21.996 12.5997 21.7691 13.1476C21.5423 13.6954 21.1582 14.1638 20.6653 14.4935C20.1725 14.8231 19.593 14.9994 19 14.9999C18.2046 14.9992 17.4421 14.6827 16.88 14.1199L21.12 9.87988V9.87988Z" stroke="black" stroke-width="2" stroke-linecap="round" stroke-linejoin="round"/>
</svg>
