<svg width="24" height="24" viewBox="0 0 24 24" fill="none" xmlns="http://www.w3.org/2000/svg">
<path d="M19.364 4.63611C19.7389 5.01117 19.9496 5.51978 19.9496 6.05011C19.9496 6.58044 19.7389 7.08906 19.364 7.46411C19.7923 8.66024 19.8869 9.95039 19.6378 11.1962C19.3887 12.4421 18.8053 13.5966 17.95 14.5361L15.828 16.6561C15.4415 17.149 15.1762 17.7258 15.0534 18.3399C14.9306 18.9541 14.9538 19.5885 15.121 20.1921L3.808 8.88011C4.41144 9.04716 5.04568 9.07022 5.65966 8.94742C6.27364 8.82463 6.85022 8.55941 7.343 8.17311L9.464 6.05011C10.4035 5.19483 11.558 4.61136 12.8039 4.36226C14.0497 4.11316 15.3399 4.20783 16.536 4.63611C16.9111 4.26117 17.4197 4.05054 17.95 4.05054C18.4803 4.05054 18.9889 4.26117 19.364 4.63611V4.63611Z" stroke="black" stroke-width="2" stroke-linecap="round" stroke-linejoin="round"/>
<path d="M7.343 12.4141L6.636 13.1211C6.07335 13.6837 5.75725 14.4468 5.75725 15.2426C5.75725 16.0383 6.07335 16.8014 6.636 17.3641C7.19866 17.9267 7.96178 18.2428 8.7575 18.2428C9.55322 18.2428 10.3163 17.9267 10.879 17.3641L11.586 16.6571" stroke="black" stroke-width="2" stroke-linecap="round" stroke-linejoin="round"/>
</svg>
