<svg width="24" height="24" viewBox="0 0 24 24" fill="none" xmlns="http://www.w3.org/2000/svg">
<path d="M12 14C13.1046 14 14 13.1046 14 12C14 10.8954 13.1046 10 12 10C10.8954 10 10 10.8954 10 12C10 13.1046 10.8954 14 12 14Z" stroke="black" stroke-width="2" stroke-linecap="round" stroke-linejoin="round"/>
<path d="M15.349 3.13306C15.9097 3.69337 16.3212 4.38509 16.5461 5.14518C16.771 5.90526 16.8021 6.70955 16.6366 7.48474C16.4711 8.25992 16.1142 8.98136 15.5985 9.58332C15.0828 10.1853 14.4246 10.6486 13.684 10.9311M11.939 14.0001C11.939 14.1731 11.987 14.3511 11.995 14.5331V14.7501C11.995 15.9723 11.5239 17.1474 10.6796 18.0312C9.83534 18.9149 8.68292 19.4392 7.462 19.4951H7.245L11.939 14.0001ZM2.495 14.7451C2.49505 13.8482 2.74901 12.9697 3.22751 12.2111C3.70601 11.4526 4.38949 10.845 5.19888 10.4586C6.00827 10.0723 6.91049 9.923 7.80119 10.028C8.69189 10.133 9.53465 10.4881 10.232 11.0521L2.495 14.7451ZM16.745 19.4951C16.0575 19.4951 15.3782 19.3458 14.7541 19.0577C14.1299 18.7696 13.5757 18.3494 13.1298 17.8261C12.6838 17.3029 12.3568 16.6891 12.1712 16.0272C11.9857 15.3652 11.946 14.6708 12.055 13.9921H11.995L16.745 19.4951ZM13.759 11.0481C14.4421 10.4959 15.2649 10.144 16.1359 10.0314C17.007 9.91877 17.8922 10.0499 18.6933 10.4101C19.4943 10.7704 20.1798 11.3457 20.6735 12.0721C21.1672 12.7986 21.4498 13.6477 21.49 14.5251V14.7421L13.759 11.0481ZM10.295 10.9291C9.57356 10.6536 8.93017 10.2063 8.42057 9.62607C7.91097 9.04583 7.55053 8.35009 7.37047 7.59912C7.19041 6.84815 7.19617 6.06461 7.38724 5.31637C7.57831 4.56812 7.94893 3.87775 8.467 3.30506L8.63099 3.13306L10.295 10.9291Z" stroke="black" stroke-width="2" stroke-linecap="round" stroke-linejoin="round"/>
</svg>
