<svg width="24" height="24" viewBox="0 0 24 24" fill="none" xmlns="http://www.w3.org/2000/svg">
<path d="M3.648 4.00006C3.55444 3.99881 3.46175 4.0181 3.37645 4.05655C3.29115 4.09501 3.21532 4.1517 3.1543 4.22263C3.09328 4.29357 3.04856 4.37702 3.02328 4.46711C2.998 4.5572 2.99279 4.65173 3.008 4.74406L6.148 19.2721C6.218 19.6891 6.578 19.9961 7 20.0001H17C17.1537 20.0016 17.303 19.9482 17.4207 19.8493C17.5384 19.7505 17.6169 19.6127 17.642 19.4611L20.992 4.75106C21.007 4.65876 21.0017 4.56429 20.9763 4.47428C20.951 4.38427 20.9063 4.30089 20.8453 4.23C20.7843 4.15911 20.7085 4.10241 20.6233 4.0639C20.5381 4.02539 20.4455 4.00599 20.352 4.00706L3.648 4.00006V4.00006Z" stroke="black" stroke-width="2" stroke-linecap="round" stroke-linejoin="round"/>
<path d="M14 15H10L9 9H15L14 15Z" stroke="black" stroke-width="2" stroke-linecap="round" stroke-linejoin="round"/>
</svg>
