<svg width="24" height="24" viewBox="0 0 24 24" fill="none" xmlns="http://www.w3.org/2000/svg">
<path d="M3 18C2.99354 18.381 3.10001 18.7554 3.306 19.076C3.4772 19.3452 3.7103 19.5695 3.98586 19.7303C4.26141 19.891 4.57142 19.9835 4.89 20C5.536 20.033 4.353 20 5 20H8C7.99978 18.9084 7.64173 17.8469 6.98069 16.9782C6.31965 16.1094 5.39207 15.4813 4.34 15.19C4.898 14.217 5.58 13.041 6.38 11.659C8.04088 12.3316 9.4631 13.4848 10.4644 14.9709C11.4656 16.4569 12.0004 18.2081 12 20H16C16.663 20 18.337 20.005 19 20C19.3263 19.9977 19.6471 19.9156 19.9344 19.7609C20.2217 19.6061 20.4667 19.3835 20.6482 19.1123C20.8297 18.841 20.942 18.5296 20.9754 18.205C21.0089 17.8804 20.9624 17.5525 20.84 17.25L13.74 5.00002C13.567 4.68741 13.3135 4.42685 13.0058 4.2454C12.698 4.06396 12.3473 3.96826 11.99 3.96826C11.6327 3.96826 11.282 4.06396 10.9742 4.2454C10.6665 4.42685 10.413 4.68741 10.24 5.00002L8.4 8.17602C12.882 10.226 16 14.747 16 20" stroke="black" stroke-width="2" stroke-linecap="round" stroke-linejoin="round"/>
</svg>
