<svg width="24" height="24" viewBox="0 0 24 24" fill="none" xmlns="http://www.w3.org/2000/svg">
<path d="M12 21C16.9706 21 21 16.9706 21 12C21 7.02944 16.9706 3 12 3C7.02944 3 3 7.02944 3 12C3 16.9706 7.02944 21 12 21Z" stroke="black" stroke-width="2" stroke-linecap="round" stroke-linejoin="round"/>
<path d="M12 10.523C14.46 9.69695 16.002 9.69695 16.002 8.36795C16.002 7.00195 14.655 7.00195 13.267 7.00195C11.357 7.00195 9.915 7.49195 8.73 8.74995C7.882 9.65195 7.703 11.199 8.577 12.057C9.55 13.013 11.783 13.846 11.461 15.55C11.228 16.785 9.992 17.373 8.844 16.752C8.062 16.328 8.39 15.006 9.47 14.24C10.55 13.474 12.292 13.248 13.57 14C14.55 14.575 14.616 15.724 14.004 16.193" stroke="black" stroke-width="2" stroke-linecap="round" stroke-linejoin="round"/>
</svg>
