<svg width="24" height="24" viewBox="0 0 24 24" fill="none" xmlns="http://www.w3.org/2000/svg">
<path d="M12 3C14.0669 2.99883 16.0712 3.70911 17.6762 5.01149C19.2811 6.31387 20.3889 8.12898 20.8133 10.1518C21.2378 12.1747 20.953 14.282 20.0069 16.1196C19.0608 17.9573 17.511 19.4133 15.618 20.243L13.425 14.641C14.0127 14.3239 14.4778 13.8198 14.7467 13.2085C15.0155 12.5972 15.0727 11.9136 14.9092 11.2662C14.7456 10.6187 14.3708 10.0443 13.8439 9.63394C13.317 9.22359 12.6683 9.00077 12.0005 9.00077C11.3327 9.00077 10.684 9.22359 10.1571 9.63394C9.63025 10.0443 9.25536 10.6187 9.09183 11.2662C8.92831 11.9136 8.98549 12.5972 9.25433 13.2085C9.52316 13.8198 9.98828 14.3239 10.576 14.641L8.383 20.244C6.48943 19.4147 4.93907 17.9588 3.99251 16.121C3.04596 14.2832 2.76091 12.1756 3.18528 10.1524C3.60966 8.12923 4.71758 6.3138 6.32282 5.01127C7.92807 3.70875 9.93278 2.99853 12 3V3Z" stroke="black" stroke-width="2" stroke-linecap="round" stroke-linejoin="round"/>
</svg>
