<svg width="24" height="24" viewBox="0 0 24 24" fill="none" xmlns="http://www.w3.org/2000/svg">
<path d="M12 2.99991C13.4088 2.9996 14.7981 3.33003 16.0559 3.96462C17.3137 4.59921 18.405 5.52023 19.2419 6.65355C20.0788 7.78687 20.638 9.10084 20.8744 10.4897C21.1108 11.8786 21.0178 13.3035 20.603 14.6499C20.9791 15.483 21.0926 16.4109 20.9283 17.3101C20.7641 18.2093 20.3299 19.0371 19.6836 19.6835C19.0372 20.3298 18.2094 20.764 17.3102 20.9282C16.411 21.0925 15.4831 20.979 14.65 20.6029C13.0858 21.0854 11.4196 21.1322 9.83076 20.7382C8.24194 20.3441 6.79067 19.5242 5.63317 18.3667C4.47567 17.2092 3.65578 15.758 3.26175 14.1691C2.86773 12.5803 2.91449 10.9141 3.397 9.34991C3.02057 8.51676 2.90684 7.58872 3.07094 6.68934C3.23504 5.78995 3.6692 4.96188 4.3156 4.31536C4.96201 3.66884 5.79001 3.23455 6.68937 3.0703C7.58873 2.90604 8.51679 3.01962 9.35 3.39591C10.2086 3.13223 11.1018 2.99875 12 2.99991V2.99991Z" stroke="black" stroke-width="2" stroke-linecap="round" stroke-linejoin="round"/>
<path d="M8 14.5C8.5 16.5 10.358 17 12 17C14.905 17 16 15.813 16 14.5C16 12.997 14.073 12 12 12C9.927 12 8 11.003 8 9.5C8 8.187 9.095 7 12 7C13.642 7 15.5 7.5 16 9.5" stroke="black" stroke-width="2" stroke-linecap="round" stroke-linejoin="round"/>
</svg>
