<svg width="24" height="24" viewBox="0 0 24 24" fill="none" xmlns="http://www.w3.org/2000/svg">
<path d="M12 7C13.1046 7 14 6.10457 14 5C14 3.89543 13.1046 3 12 3C10.8954 3 10 3.89543 10 5C10 6.10457 10.8954 7 12 7Z" stroke="black" stroke-width="2" stroke-linecap="round" stroke-linejoin="round"/>
<path d="M20 12.5V17.25C20.0065 17.3611 19.9877 17.4722 19.945 17.575C19.8783 17.7358 19.7543 17.8662 19.597 17.941L14.135 20.521C13.4674 20.8364 12.7383 21 12 21C11.2617 21 10.5326 20.8364 9.86501 20.521L4.40301 17.941C4.27411 17.8799 4.16677 17.7812 4.09518 17.6578C4.02358 17.5344 3.99109 17.3922 4.00201 17.25L4.00001 12.5" stroke="black" stroke-width="2" stroke-linecap="round" stroke-linejoin="round"/>
<path d="M4.431 12.2159L10.065 9.88394C11.3042 9.37169 12.6959 9.37169 13.935 9.88394L19.569 12.2159C19.6938 12.2669 19.801 12.3533 19.8774 12.4644C19.9538 12.5755 19.9961 12.7065 19.9991 12.8413C20.0021 12.9761 19.9656 13.1088 19.8942 13.2231C19.8227 13.3375 19.7194 13.4285 19.597 13.4849L14.135 16.0279C13.4662 16.3389 12.7376 16.5 12 16.5C11.2625 16.5 10.5338 16.3389 9.865 16.0279L4.403 13.4849C4.2799 13.429 4.17592 13.3381 4.10397 13.2236C4.03203 13.109 3.99526 12.9759 3.99825 12.8407C4.00123 12.7055 4.04382 12.5741 4.12075 12.4629C4.19767 12.3517 4.30555 12.2655 4.431 12.2149V12.2159Z" stroke="black" stroke-width="2" stroke-linecap="round" stroke-linejoin="round"/>
<path d="M12 7V13" stroke="black" stroke-width="2" stroke-linecap="round" stroke-linejoin="round"/>
</svg>
