<svg width="24" height="24" viewBox="0 0 24 24" fill="none" xmlns="http://www.w3.org/2000/svg">
<path d="M7.05 11.2931L11.293 7.05005C11.6681 6.67511 12.1767 6.46448 12.707 6.46448C13.2373 6.46448 13.7459 6.67511 14.121 7.05005L16.95 9.88005C17.3249 10.2551 17.5356 10.7637 17.5356 11.2941C17.5356 11.8244 17.3249 12.333 16.95 12.7081L12.707 16.9511C12.3319 17.326 11.8233 17.5366 11.293 17.5366C10.7627 17.5366 10.2541 17.326 9.879 16.9511L7.05 14.1201C6.67506 13.745 6.46443 13.2364 6.46443 12.7061C6.46443 12.1757 6.67506 11.6671 7.05 11.2921V11.2931Z" stroke="black" stroke-width="2" stroke-linecap="round" stroke-linejoin="round"/>
<path d="M16.243 9.172L19.329 8.4C19.5865 8.33566 19.8224 8.20411 20.0125 8.01879C20.2026 7.83348 20.3401 7.60103 20.411 7.3452C20.4818 7.08936 20.4835 6.8193 20.4159 6.56258C20.3483 6.30587 20.2137 6.07171 20.026 5.884L17.81 3.66701C17.6367 3.49354 17.4234 3.36522 17.189 3.29329C16.9545 3.22135 16.706 3.20799 16.4652 3.25437C16.2244 3.30076 15.9987 3.40547 15.8077 3.55935C15.6168 3.71322 15.4665 3.91156 15.37 4.13701L14.122 7.05001" stroke="black" stroke-width="2" stroke-linecap="round" stroke-linejoin="round"/>
<path d="M9.172 16.2429L8.4 19.3289C8.33566 19.5865 8.20411 19.8224 8.01879 20.0125C7.83348 20.2025 7.60103 20.34 7.3452 20.4109C7.08936 20.4818 6.8193 20.4835 6.56258 20.4159C6.30587 20.3482 6.07171 20.2137 5.884 20.0259L3.66701 17.8099C3.49354 17.6366 3.36522 17.4234 3.29329 17.1889C3.22135 16.9545 3.20799 16.706 3.25437 16.4652C3.30076 16.2244 3.40547 15.9986 3.55935 15.8077C3.71322 15.6168 3.91156 15.4665 4.13701 15.3699L7.05001 14.1219" stroke="black" stroke-width="2" stroke-linecap="round" stroke-linejoin="round"/>
</svg>
