<svg width="24" height="24" viewBox="0 0 24 24" fill="none" xmlns="http://www.w3.org/2000/svg">
<path d="M5.63701 5.63497C4.78995 6.46803 4.11621 7.46055 3.65465 8.55529C3.19309 9.65003 2.95284 10.8253 2.94777 12.0134C2.94271 13.2014 3.17291 14.3787 3.62511 15.4774C4.07731 16.576 4.74256 17.5742 5.58248 18.4145C6.4224 19.2547 7.42038 19.9204 8.51884 20.373C9.6173 20.8256 10.7945 21.0563 11.9826 21.0517C13.1706 21.0471 14.346 20.8073 15.4409 20.3462C16.5358 19.8851 17.5286 19.2117 18.362 18.365M20.042 16.045C20.894 14.3538 21.1909 12.4371 20.8905 10.5674C20.59 8.69777 19.7075 6.97053 18.3685 5.63153C17.0295 4.29253 15.3022 3.40999 13.4326 3.10951C11.5629 2.80904 9.64614 3.10595 7.95501 3.95797L20.042 16.045Z" stroke="black" stroke-width="2" stroke-linecap="round" stroke-linejoin="round"/>
<path d="M3 3L21 21" stroke="black" stroke-width="2" stroke-linecap="round" stroke-linejoin="round"/>
</svg>
