<svg width="24" height="24" viewBox="0 0 24 24" fill="none" xmlns="http://www.w3.org/2000/svg">
<path d="M7 18C5.75228 18 4.55566 17.5258 3.67338 16.6819C2.79111 15.838 2.29545 14.6934 2.29545 13.5C2.29545 12.3065 2.79111 11.1619 3.67338 10.318C4.55566 9.47406 5.75228 8.99995 7 8.99995C7.29468 7.68713 8.15676 6.53343 9.39659 5.79267C10.0105 5.42587 10.6986 5.1715 11.4218 5.04406C12.1449 4.91663 12.8888 4.91863 13.6111 5.04995C14.3334 5.18127 15.0198 5.43934 15.6313 5.80943C16.2427 6.17952 16.7672 6.65437 17.1748 7.20688C17.5823 7.75939 17.8649 8.37873 18.0065 9.02955C18.1481 9.68036 18.1459 10.3499 18 11H19C19.9283 11 20.8185 11.3687 21.4749 12.0251C22.1313 12.6815 22.5 13.5717 22.5 14.5C22.5 15.4282 22.1313 16.3184 21.4749 16.9748C20.8185 17.6312 19.9283 18 19 18" stroke="black" stroke-width="2" stroke-linecap="round" stroke-linejoin="round"/>
<path d="M15 20V22M11 13V15V13ZM11 18V20V18ZM15 15V17V15Z" stroke="black" stroke-width="2" stroke-linecap="round" stroke-linejoin="round"/>
</svg>
