<svg width="24" height="24" viewBox="0 0 24 24" fill="none" xmlns="http://www.w3.org/2000/svg">
<path d="M19 18C19.9283 18 20.8185 17.6312 21.4749 16.9748C22.1313 16.3184 22.5 15.4282 22.5 14.5C22.5 13.5717 22.1313 12.6815 21.4749 12.0251C20.8185 11.3687 19.9283 11 19 11H18C18.1459 10.3499 18.1481 9.68036 18.0065 9.02955C17.865 8.37873 17.5823 7.75939 17.1748 7.20688C16.7672 6.65437 16.2427 6.17952 15.6313 5.80943C15.0198 5.43934 14.3334 5.18127 13.6111 5.04995C12.8888 4.91863 12.1449 4.91663 11.4218 5.04406C10.6986 5.1715 10.0105 5.42587 9.39659 5.79267C8.15677 6.53343 7.29469 7.68713 7 8.99995C5.93396 8.95725 4.88554 9.27035 4.03427 9.88565C3.18301 10.5009 2.58183 11.3802 2.33368 12.3728C2.08553 13.3654 2.20583 14.4096 2.674 15.3267C3.14218 16.2438 3.92909 16.9767 4.9 17.4" stroke="black" stroke-width="2" stroke-linecap="round" stroke-linejoin="round"/>
<path d="M12 13V22" stroke="black" stroke-width="2" stroke-linecap="round" stroke-linejoin="round"/>
<path d="M9 19L12 22L15 19" stroke="black" stroke-width="2" stroke-linecap="round" stroke-linejoin="round"/>
</svg>
