<svg width="24" height="24" viewBox="0 0 24 24" fill="none" xmlns="http://www.w3.org/2000/svg">
<path d="M3 3L21 21" stroke="black" stroke-width="2" stroke-linecap="round" stroke-linejoin="round"/>
<path d="M9.662 5.64405C9.991 5.47005 10.342 5.32505 10.712 5.21405C12.612 4.63805 14.709 5.02005 16.212 6.21405C17.715 7.40605 18.397 9.23105 18 11H19C19.7224 11.0001 20.427 11.2237 21.0172 11.6402C21.6075 12.0566 22.0544 12.6455 22.2967 13.326C22.539 14.0065 22.5649 14.7453 22.3707 15.441C22.1764 16.1368 21.7717 16.7554 21.212 17.212M18 18H7C4.402 18 2.295 15.985 2.295 13.5C2.295 11.015 4.402 9.00005 7 9.00005C7.112 8.50005 7.305 8.02705 7.568 7.59205L18 18Z" stroke="black" stroke-width="2" stroke-linecap="round" stroke-linejoin="round"/>
</svg>
