<svg width="24" height="24" viewBox="0 0 24 24" fill="none" xmlns="http://www.w3.org/2000/svg">
<path d="M7 16C5.75228 16 4.55566 15.5259 3.67339 14.682C2.79111 13.838 2.29546 12.6934 2.29546 11.5C2.29546 10.3065 2.79111 9.1619 3.67339 8.31799C4.55566 7.47408 5.75228 6.99997 7 6.99997C7.29469 5.68715 8.15676 4.53345 9.39659 3.79269C10.6364 3.05192 12.1524 2.78475 13.6111 3.04997C15.0698 3.31519 16.3517 4.09106 17.1748 5.2069C17.9978 6.32274 18.2947 7.68715 18 8.99997H19C19.9283 8.99997 20.8185 9.36872 21.4749 10.0251C22.1313 10.6815 22.5 11.5717 22.5 12.5C22.5 13.4282 22.1313 14.3185 21.4749 14.9748C20.8185 15.6312 19.9283 16 19 16H7Z" stroke="black" stroke-width="2" stroke-linecap="round" stroke-linejoin="round"/>
<path d="M5 20H19" stroke="black" stroke-width="2" stroke-linecap="round" stroke-linejoin="round"/>
</svg>
