<svg width="24" height="24" viewBox="0 0 24 24" fill="none" xmlns="http://www.w3.org/2000/svg">
<path d="M3 13.9999C3.83 14.6419 5.077 15.0169 6.5 14.9999C7.923 15.0169 9.17 14.6419 10 13.9999C10.83 13.3579 12.077 12.9829 13.5 12.9999C14.923 12.9829 16.17 13.3579 17 13.9999" stroke="black" stroke-width="2" stroke-linecap="round" stroke-linejoin="round"/>
<path d="M8.00001 3C7.68352 3.22717 7.42708 3.52797 7.25286 3.87642C7.07863 4.22488 6.99185 4.6105 7.00001 5C6.99185 5.3895 7.07863 5.77512 7.25286 6.12358C7.42708 6.47203 7.68352 6.77283 8.00001 7" stroke="black" stroke-width="2" stroke-linecap="round" stroke-linejoin="round"/>
<path d="M12 3C11.6835 3.22717 11.4271 3.52797 11.2529 3.87642C11.0786 4.22488 10.9918 4.6105 11 5C10.9918 5.3895 11.0786 5.77512 11.2529 6.12358C11.4271 6.47203 11.6835 6.77283 12 7" stroke="black" stroke-width="2" stroke-linecap="round" stroke-linejoin="round"/>
<path d="M3 10H17V15C17 16.5913 16.3679 18.1174 15.2426 19.2426C14.1174 20.3679 12.5913 21 11 21H9C7.4087 21 5.88258 20.3679 4.75736 19.2426C3.63214 18.1174 3 16.5913 3 15V10Z" stroke="black" stroke-width="2" stroke-linecap="round" stroke-linejoin="round"/>
<path d="M16.746 16.7259C17.1926 16.931 17.6827 17.0231 18.1733 16.9944C18.6639 16.9656 19.1398 16.8167 19.5594 16.5609C19.979 16.3051 20.3293 15.9501 20.5795 15.5272C20.8297 15.1043 20.9723 14.6264 20.9945 14.1355C21.0168 13.6446 20.9181 13.1557 20.7072 12.7119C20.4963 12.268 20.1796 11.8828 19.7849 11.59C19.3902 11.2973 18.9297 11.1059 18.4437 11.0329C17.9578 10.9598 17.4613 11.0072 16.998 11.1709" stroke="black" stroke-width="2" stroke-linecap="round" stroke-linejoin="round"/>
</svg>
