<svg width="24" height="24" viewBox="0 0 24 24" fill="none" xmlns="http://www.w3.org/2000/svg">
<path d="M8 13V13.01" stroke="black" stroke-width="2" stroke-linecap="round" stroke-linejoin="round"/>
<path d="M12 17V17.01" stroke="black" stroke-width="2" stroke-linecap="round" stroke-linejoin="round"/>
<path d="M12 12V12.01" stroke="black" stroke-width="2" stroke-linecap="round" stroke-linejoin="round"/>
<path d="M16 14V14.01" stroke="black" stroke-width="2" stroke-linecap="round" stroke-linejoin="round"/>
<path d="M11 8V8.01" stroke="black" stroke-width="2" stroke-linecap="round" stroke-linejoin="round"/>
<path d="M13.148 3.47602L15.815 4.58002C15.2864 5.27544 15 6.12477 14.9995 6.99826C14.999 7.87176 15.2845 8.7214 15.8123 9.41742C16.3401 10.1134 17.0812 10.6175 17.9224 10.8528C18.7637 11.088 19.6588 11.0414 20.471 10.72L20.524 10.852C20.8285 11.5871 20.8285 12.413 20.524 13.148C20.027 13.934 19.686 14.552 19.5 15C19.311 15.456 19.091 16.194 18.84 17.216C18.5353 17.951 17.9511 18.5348 17.216 18.839C16.168 19.102 15.429 19.322 15 19.5C14.525 19.697 13.908 20.038 13.148 20.524C12.413 20.8285 11.5871 20.8285 10.852 20.524C10.05 20.021 9.43301 19.68 9.00001 19.5C8.52901 19.305 7.79001 19.085 6.78401 18.84C6.04907 18.5353 5.46526 17.9511 5.16101 17.216C4.89601 16.164 4.67601 15.426 4.50001 15C4.30201 14.521 3.96001 13.904 3.47601 13.148C3.17155 12.413 3.17155 11.5871 3.47601 10.852C3.95601 10.108 4.29601 9.49102 4.50001 9.00002C4.67101 8.58702 4.89101 7.84802 5.16001 6.78402C5.46471 6.04908 6.04888 5.46528 6.78401 5.16102C7.81601 4.90502 8.55401 4.68502 9.00001 4.50002C9.45801 4.31002 10.075 3.96902 10.852 3.47602C11.5871 3.17157 12.413 3.17157 13.148 3.47602V3.47602Z" stroke="black" stroke-width="2" stroke-linecap="round" stroke-linejoin="round"/>
</svg>
