<svg width="24" height="24" viewBox="0 0 24 24" fill="none" xmlns="http://www.w3.org/2000/svg">
<path d="M12 21C16.9706 21 21 16.9706 21 12C21 7.02944 16.9706 3 12 3C7.02944 3 3 7.02944 3 12C3 16.9706 7.02944 21 12 21Z" stroke="black" stroke-width="2" stroke-linecap="round" stroke-linejoin="round"/>
<path d="M9.5 9C10.0052 8.49083 10.6282 8.15907 11.2942 8.04453C11.9603 7.92999 12.6412 8.03753 13.2551 8.35425C13.869 8.67097 14.3899 9.18342 14.7553 9.83009C15.1207 10.4768 15.315 11.2302 15.315 12C15.315 12.7698 15.1207 13.5232 14.7553 14.1699C14.3899 14.8166 13.869 15.329 13.2551 15.6458C12.6412 15.9625 11.9603 16.07 11.2942 15.9555C10.6282 15.8409 10.0052 15.5092 9.5 15" stroke="black" stroke-width="2" stroke-linecap="round" stroke-linejoin="round"/>
</svg>
