<svg width="24" height="24" viewBox="0 0 24 24" fill="none" xmlns="http://www.w3.org/2000/svg">
<path d="M11.196 7.206L12 6L16 12L20.464 8.429C20.504 8.39711 20.5529 8.37828 20.604 8.37506C20.6551 8.37184 20.706 8.38439 20.7497 8.411C20.7934 8.43761 20.8279 8.477 20.8486 8.52386C20.8692 8.57072 20.8749 8.62278 20.865 8.673L19.502 15.491M18 18H5L3.135 8.673C3.12531 8.62294 3.13116 8.57112 3.15176 8.52449C3.17237 8.47785 3.20673 8.43863 3.25026 8.41208C3.29378 8.38553 3.34439 8.37292 3.39528 8.37594C3.44617 8.37897 3.49493 8.39748 3.535 8.429L8 12L9.6 9.6L18 18Z" stroke="black" stroke-width="2" stroke-linecap="round" stroke-linejoin="round"/>
<path d="M3 3L21 21" stroke="black" stroke-width="2" stroke-linecap="round" stroke-linejoin="round"/>
</svg>
