<svg width="24" height="24" viewBox="0 0 24 24" fill="none" xmlns="http://www.w3.org/2000/svg">
<path d="M13.9 13H6.9M17 18.5C16.2156 18.8595 15.3629 19.0457 14.5 19.0457C13.6371 19.0457 12.7844 18.8595 12 18.5C11.18 18.2169 10.3083 18.115 9.44514 18.2014C8.58194 18.2877 7.74773 18.5602 7 19C7.53543 18.8147 8.00742 18.4815 8.36137 18.0391C8.71531 17.5967 8.93673 17.0631 9 16.5V9.00001C9.00528 8.12394 9.29803 7.27383 9.83329 6.58026C10.3685 5.8867 11.1167 5.38805 11.9628 5.1609C12.809 4.93375 13.7063 4.99067 14.5169 5.32292C15.3275 5.65517 16.0067 6.24437 16.45 7.00001L17 18.5Z" stroke="black" stroke-width="2" stroke-linecap="round" stroke-linejoin="round"/>
</svg>
