<svg width="24" height="24" viewBox="0 0 24 24" fill="none" xmlns="http://www.w3.org/2000/svg">
<path d="M3 10V11C3 12.0609 3.42143 13.0783 4.17157 13.8284C4.92172 14.5786 5.93913 15 7 15H9C9.53043 15 10.0391 14.7893 10.4142 14.4142C10.7893 14.0391 11 13.5304 11 13V10" stroke="black" stroke-width="2" stroke-linecap="round" stroke-linejoin="round"/>
<path d="M7 19.01V19" stroke="black" stroke-width="2" stroke-linecap="round" stroke-linejoin="round"/>
<path d="M14 15.01V15" stroke="black" stroke-width="2" stroke-linecap="round" stroke-linejoin="round"/>
<path d="M17 15H19.004C19.3682 14.9999 19.7254 14.9004 20.0372 14.7122C20.3489 14.524 20.6034 14.2542 20.7731 13.932C20.9428 13.6098 21.0213 13.2473 21.0001 12.8838C20.979 12.5202 20.8589 12.1693 20.653 11.869L18 8" stroke="black" stroke-width="2" stroke-linecap="round" stroke-linejoin="round"/>
</svg>
