<svg width="24" height="24" viewBox="0 0 24 24" fill="none" xmlns="http://www.w3.org/2000/svg">
<path d="M12 15C13.1046 15 14 14.1046 14 13C14 11.8954 13.1046 11 12 11C10.8954 11 10 11.8954 10 13C10 14.1046 10.8954 15 12 15Z" stroke="black" stroke-width="2" stroke-linecap="round" stroke-linejoin="round"/>
<path d="M13.45 11.55L15.5 9.5" stroke="black" stroke-width="2" stroke-linecap="round" stroke-linejoin="round"/>
<path d="M6.4 20C4.93815 18.8381 3.87391 17.2502 3.35478 15.4564C2.83564 13.6627 2.88732 11.7519 3.50265 9.98878C4.11797 8.2257 5.26647 6.69768 6.78899 5.61647C8.3115 4.53526 10.1326 3.95441 12 3.95441C13.8674 3.95441 15.6885 4.53526 17.211 5.61647C18.7335 6.69768 19.882 8.2257 20.4974 9.98878C21.1127 11.7519 21.1644 13.6627 20.6452 15.4564C20.1261 17.2502 19.0619 18.8381 17.6 20H6.4Z" stroke="black" stroke-width="2" stroke-linecap="round" stroke-linejoin="round"/>
</svg>
