<svg width="24" height="24" viewBox="0 0 24 24" fill="none" xmlns="http://www.w3.org/2000/svg">
<path d="M12 9C16.4183 9 20 7.65685 20 6C20 4.34315 16.4183 3 12 3C7.58172 3 4 4.34315 4 6C4 7.65685 7.58172 9 12 9Z" stroke="black" stroke-width="2" stroke-linecap="round" stroke-linejoin="round"/>
<path d="M20 12V6M4 6V12C4 13.657 7.582 15 12 15C13.1062 15.0032 14.2107 14.9139 15.302 14.733L4 6Z" stroke="black" stroke-width="2" stroke-linecap="round" stroke-linejoin="round"/>
<path d="M18 16L21 19L18 22M4 12V18C4 19.599 7.335 20.905 11.538 20.995L4 12ZM20 14V12V14ZM14 19H21H14Z" stroke="black" stroke-width="2" stroke-linecap="round" stroke-linejoin="round"/>
</svg>
