<svg width="24" height="24" viewBox="0 0 24 24" fill="none" xmlns="http://www.w3.org/2000/svg">
<path d="M9 4.5H9.5V4V3C9.5 2.72386 9.72386 2.5 10 2.5H14C14.2761 2.5 14.5 2.72386 14.5 3V3.00229V3.00459V3.00689V3.00919V3.0115V3.01382V3.01614V3.01846V3.02079V3.02313V3.02547V3.02781V3.03016V3.03251V3.03487V3.03723V3.03959V3.04196V3.04434V3.04672V3.0491V3.05149V3.05388V3.05628V3.05868V3.06108V3.06349V3.0659V3.06832V3.07074V3.07316V3.07559V3.07802V3.08045V3.08289V3.08534V3.08778V3.09023V3.09269V3.09514V3.0976V3.10007V3.10254V3.10501V3.10748V3.10996V3.11244V3.11493V3.11741V3.1199V3.1224V3.1249V3.1274V3.1299V3.13241V3.13491V3.13743V3.13994V3.14246V3.14498V3.1475V3.15003V3.15256V3.15509V3.15763V3.16016V3.1627V3.16524V3.16779V3.17034V3.17289V3.17544V3.17799V3.18055V3.18311V3.18567V3.18823V3.1908V3.19336V3.19593V3.19851V3.20108V3.20366V3.20623V3.20881V3.21139V3.21398V3.21656V3.21915V3.22174V3.22433V3.22692V3.22951V3.23211V3.2347V3.2373V3.2399V3.2425V3.2451V3.24771V3.25031V3.25292V3.25553V3.25813V3.26074V3.26335V3.26597V3.26858V3.27119V3.27381V3.27642V3.27904V3.28166V3.28428V3.2869V3.28952V3.29214V3.29476V3.29738V3.3V3.30263V3.30525V3.30787V3.3105V3.31312V3.31575V3.31838V3.321V3.32363V3.32626V3.32888V3.33151V3.33414V3.33676V3.33939V3.34202V3.34465V3.34727V3.3499V3.35253V3.35515V3.35778V3.36041V3.36303V3.36566V3.36828V3.37091V3.37353V3.37616V3.37878V3.3814V3.38403V3.38665V3.38927V3.39189V3.39451V3.39713V3.39975V3.40236V3.40498V3.4076V3.41021V3.41282V3.41544V3.41805V3.42066V3.42327V3.42588V3.42848V3.43109V3.43369V3.4363V3.4389V3.4415V3.4441V3.44669V3.44929V3.45188V3.45448V3.45707V3.45966V3.46225V3.46483V3.46742V3.47V3.47258V3.47516V3.47774V3.48031V3.48288V3.48545V3.48802V3.49059V3.49315V3.49572V3.49828V3.50084V3.50339V3.50594V3.5085V3.51104V3.51359V3.51613V3.51868V3.52121V3.52375V3.52628V3.52881V3.53134V3.53387V3.53639V3.53891V3.54143V3.54394V3.54645V3.54896V3.55147V3.55397V3.55647V3.55896V3.56146V3.56395V3.56643V3.56892V3.5714V3.57387V3.57635V3.57882V3.58128V3.58375V3.58621V3.58866V3.59111V3.59356V3.59601V3.59845V3.60089V3.60332V3.60575V3.60818V3.6106V3.61302V3.61543V3.61784V3.62025V3.62265V3.62505V3.62745V3.62984V3.63222V3.6346V3.63698V3.63935V3.64172V3.64409V3.64645V3.6488V3.65115V3.6535V3.65584V3.65818V3.66051V3.66284V3.66516V3.66748V3.66979V3.6721V3.67441V3.6767V3.679V3.68129V3.68357V3.68585V3.68812V3.69039V3.69266V3.69491V3.69717V3.69941V3.70166V3.70389V3.70613V3.70835V3.71057V3.71279V3.715V3.7172V3.7194V3.72159V3.72378V3.72596V3.72814V3.73031V3.73247V3.73463V3.73678V3.73893V3.74107V3.7432V3.74533V3.74745V3.74957V3.75168V3.75378V3.75588V3.75797V3.76005V3.76213V3.7642V3.76627V3.76833V3.77038V3.77243V3.77447V3.7765V3.77853V3.78055V3.78256V3.78456V3.78656V3.78856V3.79054V3.79252V3.79449V3.79646V3.79841V3.80036V3.80231V3.80424V3.80617V3.8081V3.81001V3.81192V3.81382V3.81571V3.8176V3.81947V3.82134V3.82321V3.82506V3.82691V3.82875V3.83058V3.83241V3.83422V3.83603V3.83783V3.83963V3.84141V3.84319V3.84496V3.84672V3.84848V3.85022V3.85196V3.85369V3.85541V3.85713V3.85883V3.86053V3.86222V3.8639V3.86557V3.86723V3.86889V3.87053V3.87217V3.8738V3.87542V3.87703V3.87863V3.88023V3.88181V3.88339V3.88496V3.88652V3.88807V3.88961V3.89114V3.89267V3.89418V3.89568V3.89718V3.89867V3.90014V3.90161V3.90307V3.90452V3.90596V3.90739V3.90881V3.91023V3.91163V3.91302V3.91441V3.91578V3.91714V3.9185V3.91984V3.92118V3.9225V3.92382V3.92512V3.92642V3.92771V3.92898V3.93025V3.9315V3.93275V3.93398V3.93521V3.93642V3.93763V3.93882V3.94001V3.94118V3.94234V3.9435V3.94464V3.94577V3.94689V3.948V3.9491V3.95019V3.95127V3.95234V3.9534V3.95444V3.95548V3.9565V3.95752V3.95852V3.95951V3.96049V3.96146V3.96242V3.96337V3.96431V3.96523V3.96615V3.96705V3.96794V3.96882V3.96969V3.97055V3.97139V3.97223V3.97305V3.97386V3.97466V3.97545V3.97622V3.97699V3.97774V3.97848V3.97921V3.97993V3.98063V3.98133V3.98201V3.98268V3.98333V3.98398V3.98461V3.98523V3.98584V3.98644V3.98702V3.98759V3.98815V3.9887V3.98923V3.98976V3.99027V3.99076V3.99125V3.99172V3.99218V3.99263V3.99306V3.99348V3.99389V3.99428V3.99467V3.99504V3.99539V3.99574V3.99607V3.99639V3.99669V3.99698V3.99726V3.99752V3.99778V3.99801V3.99824V3.99845V3.99865V3.99883V3.99901V3.99916V3.99931V3.99944V3.99956V3.99966V3.99975V3.99983V3.99989V3.99994V3.99997V4V4.5H15H21.5V5.5H20H19.5V6V20C19.5 20.2824 19.4834 20.8095 19.1464 21.1464C18.8095 21.4833 18.2824 21.5 18 21.5H6C5.71759 21.5 5.19046 21.4833 4.85355 21.1464C4.51665 20.8095 4.5 20.2824 4.5 20V6V5.5H4H2.5V4.5H9ZM6 5.5H5.5V6V20V20.5H6H18H18.5V20V6V5.5H18H6ZM10.5 9.5V16.5H9.5V9.5H10.5ZM14.5 9.5V16.5H13.5V9.5H14.5Z" stroke="black"/>
</svg>
