<svg width="24" height="24" viewBox="0 0 24 24" fill="none" xmlns="http://www.w3.org/2000/svg">
<path d="M12 17C15.866 17 19 13.866 19 10C19 6.13401 15.866 3 12 3C8.13401 3 5 6.13401 5 10C5 13.866 8.13401 17 12 17Z" stroke="black" stroke-width="2" stroke-linecap="round" stroke-linejoin="round"/>
<path d="M12 13C13.6569 13 15 11.6569 15 10C15 8.34315 13.6569 7 12 7C10.3431 7 9 8.34315 9 10C9 11.6569 10.3431 13 12 13Z" stroke="black" stroke-width="2" stroke-linecap="round" stroke-linejoin="round"/>
<path d="M8 16L5.909 19.486C5.8181 19.6377 5.76906 19.8108 5.76687 19.9876C5.76468 20.1645 5.80942 20.3387 5.89654 20.4926C5.98366 20.6465 6.11003 20.7746 6.26277 20.8637C6.41551 20.9528 6.58916 20.9999 6.766 21H17.234C17.4108 20.9999 17.5845 20.9528 17.7372 20.8637C17.89 20.7746 18.0163 20.6465 18.1035 20.4926C18.1906 20.3387 18.2353 20.1645 18.2331 19.9876C18.2309 19.8108 18.1819 19.6377 18.091 19.486L16 16" stroke="black" stroke-width="2" stroke-linecap="round" stroke-linejoin="round"/>
</svg>
