<svg width="24" height="24" viewBox="0 0 24 24" fill="none" xmlns="http://www.w3.org/2000/svg">
<path d="M17.849 13.848C18.7359 12.5019 19.131 10.891 18.9677 9.28736C18.8043 7.68369 18.0925 6.18554 16.9524 5.04595C15.8124 3.90635 14.3139 3.19515 12.7102 3.03246C11.1064 2.86977 9.4957 3.26556 8.15 4.15299M6.15 6.15299C5.26385 7.49882 4.86915 9.10915 5.03251 10.7122C5.19587 12.3153 5.90729 13.8129 7.0467 14.9523C8.1861 16.0917 9.68372 16.8031 11.2868 16.9665C12.8898 17.1298 14.5002 16.7351 15.846 15.849L6.15 6.15299Z" stroke="black" stroke-width="2" stroke-linecap="round" stroke-linejoin="round"/>
<path d="M14.874 10.862C15.0299 10.343 15.0423 9.7914 14.9099 9.26588C14.7774 8.74036 14.5051 8.26052 14.1219 7.87736C13.7386 7.49419 13.2587 7.22201 12.7331 7.08971C12.2076 6.95742 11.656 6.96997 11.137 7.12602M9.13 9.12202C8.97043 9.64248 8.95548 10.1965 9.08676 10.7248C9.21804 11.2531 9.49059 11.7358 9.8752 12.121C10.2598 12.5062 10.742 12.7796 11.2701 12.9117C11.7982 13.0438 12.3523 13.0298 12.873 12.871L9.13 9.12202Z" stroke="black" stroke-width="2" stroke-linecap="round" stroke-linejoin="round"/>
<path d="M8 16L5.909 19.486C5.8181 19.6377 5.76906 19.8108 5.76687 19.9876C5.76468 20.1645 5.80942 20.3387 5.89654 20.4926C5.98365 20.6465 6.11002 20.7746 6.26277 20.8637C6.41551 20.9528 6.58915 20.9999 6.766 21H17.234C17.4108 20.9999 17.5845 20.9528 17.7372 20.8637C17.89 20.7746 18.0163 20.6465 18.1035 20.4926C18.1906 20.3387 18.2353 20.1645 18.2331 19.9876C18.2309 19.8108 18.1819 19.6377 18.091 19.486L16 16" stroke="black" stroke-width="2" stroke-linecap="round" stroke-linejoin="round"/>
<path d="M3 3L21 21" stroke="black" stroke-width="2" stroke-linecap="round" stroke-linejoin="round"/>
</svg>
