<svg width="24" height="24" viewBox="0 0 24 24" fill="none" xmlns="http://www.w3.org/2000/svg">
<path d="M17 8C18.1046 8 19 7.10457 19 6C19 4.89543 18.1046 4 17 4C15.8954 4 15 4.89543 15 6C15 7.10457 15.8954 8 17 8Z" stroke="black" stroke-width="2" stroke-linecap="round" stroke-linejoin="round"/>
<path d="M9 11C8.14159 10.9852 7.29381 11.1916 6.53833 11.5994C5.78284 12.0073 5.1451 12.6028 4.68653 13.3286C4.22795 14.0544 3.96399 14.8861 3.92008 15.7435C3.87616 16.6009 4.05376 17.4552 4.43578 18.2241C4.81779 18.9929 5.39135 19.6505 6.10121 20.1334C6.81107 20.6163 7.63332 20.9083 8.48875 20.9812C9.34419 21.0541 10.204 20.9056 10.9854 20.5498C11.7667 20.1941 12.4433 19.6431 12.95 18.95" stroke="black" stroke-width="2" stroke-linecap="round" stroke-linejoin="round"/>
<path d="M19 20L15 15H11L14 10L10 7L6 8" stroke="black" stroke-width="2" stroke-linecap="round" stroke-linejoin="round"/>
</svg>
