<svg width="24" height="24" viewBox="0 0 24 24" fill="none" xmlns="http://www.w3.org/2000/svg">
<path d="M11 7C12.1046 7 13 6.10457 13 5C13 3.89543 12.1046 3 11 3C9.89543 3 9 3.89543 9 5C9 6.10457 9.89543 7 11 7Z" stroke="black" stroke-width="2" stroke-linecap="round" stroke-linejoin="round"/>
<path d="M11 7V15H15L19 20" stroke="black" stroke-width="2" stroke-linecap="round" stroke-linejoin="round"/>
<path d="M11 11H16" stroke="black" stroke-width="2" stroke-linecap="round" stroke-linejoin="round"/>
<path d="M6.99999 11.5C6.28349 11.7967 5.64583 12.2561 5.13742 12.8417C4.62901 13.4273 4.26379 14.1231 4.07064 14.8742C3.87748 15.6253 3.86169 16.411 4.0245 17.1692C4.18731 17.9275 4.52427 18.6374 5.00873 19.243C5.49319 19.8486 6.11187 20.3332 6.81587 20.6585C7.51988 20.9837 8.28989 21.1408 9.06505 21.1172C9.84021 21.0937 10.5993 20.8901 11.2822 20.5226C11.9651 20.1552 12.5532 19.6339 13 19" stroke="black" stroke-width="2" stroke-linecap="round" stroke-linejoin="round"/>
</svg>
