<svg width="24" height="24" viewBox="0 0 24 24" fill="none" xmlns="http://www.w3.org/2000/svg">
<path d="M14.8284 14.8284C16.3905 13.2663 16.3905 10.7337 14.8284 9.17157C13.2663 7.60948 10.7337 7.60948 9.17157 9.17157C7.60947 10.7337 7.60947 13.2663 9.17157 14.8284C10.7337 16.3905 13.2663 16.3905 14.8284 14.8284Z" stroke="black" stroke-width="2" stroke-linecap="round" stroke-linejoin="round"/>
<path d="M9.17201 20.485C9.54346 20.1136 9.8381 19.6726 10.0391 19.1873C10.2402 18.702 10.3436 18.1818 10.3436 17.6565C10.3436 17.1312 10.2402 16.611 10.0391 16.1257C9.8381 15.6404 9.54346 15.1994 9.17201 14.828C8.80057 14.4566 8.3596 14.1619 7.87429 13.9609C7.38897 13.7599 6.86882 13.6564 6.34351 13.6564C5.81821 13.6564 5.29806 13.7599 4.81274 13.9609C4.32743 14.1619 3.88646 14.4566 3.51501 14.828" stroke="black" stroke-width="2" stroke-linecap="round" stroke-linejoin="round"/>
<path d="M14.828 3.51501C14.4566 3.88646 14.1619 4.32743 13.9609 4.81274C13.7599 5.29806 13.6564 5.81821 13.6564 6.34351C13.6564 6.86882 13.7599 7.38897 13.9609 7.87429C14.1619 8.3596 14.4566 8.80057 14.828 9.17201C15.1994 9.54346 15.6404 9.8381 16.1257 10.0391C16.611 10.2402 17.1312 10.3436 17.6565 10.3436C18.1818 10.3436 18.702 10.2402 19.1873 10.0391C19.6726 9.8381 20.1136 9.54346 20.485 9.17201" stroke="black" stroke-width="2" stroke-linecap="round" stroke-linejoin="round"/>
</svg>
