<svg width="24" height="24" viewBox="0 0 24 24" fill="none" xmlns="http://www.w3.org/2000/svg">
<g clip-path="url(#clip0_1179_14311)">
<path d="M19 5H16V4C16 3.20435 15.6839 2.44129 15.1213 1.87868C14.5587 1.31607 13.7956 1 13 1H11C10.2043 1 9.44129 1.31607 8.87868 1.87868C8.31607 2.44129 8 3.20435 8 4V5H5C3.6744 5.00159 2.40356 5.52888 1.46622 6.46622C0.528882 7.40356 0.00158786 8.67441 0 10L0 18C0.00158786 19.3256 0.528882 20.5965 1.46622 21.5338C2.40356 22.4711 3.6744 22.9984 5 23H19C20.3256 22.9984 21.5964 22.4711 22.5338 21.5338C23.4711 20.5965 23.9984 19.3256 24 18V10C23.9984 8.67441 23.4711 7.40356 22.5338 6.46622C21.5964 5.52888 20.3256 5.00159 19 5ZM10 4C10 3.73479 10.1054 3.48043 10.2929 3.29289C10.4804 3.10536 10.7348 3 11 3H13C13.2652 3 13.5196 3.10536 13.7071 3.29289C13.8946 3.48043 14 3.73479 14 4V5H10V4Z" fill="black"/>
<path d="M11 11C11 10.4477 11.4477 10 12 10C12.5523 10 13 10.4477 13 11V17C13 17.5523 12.5523 18 12 18C11.4477 18 11 17.5523 11 17V11Z" fill="white"/>
<path d="M9 15C8.44772 15 8 14.5523 8 14C8 13.4477 8.44772 13 9 13H15C15.5523 13 16 13.4477 16 14C16 14.5523 15.5523 15 15 15H9Z" fill="white"/>
</g>
<defs>
<clipPath id="clip0_1179_14311">
<rect width="24" height="24" fill="white"/>
</clipPath>
</defs>
</svg>
