<svg width="24" height="24" viewBox="0 0 24 24" fill="none" xmlns="http://www.w3.org/2000/svg">
<path d="M10 15L15.586 9.41501C15.3534 9.18248 15.1817 8.89618 15.0862 8.58147C14.9907 8.26676 14.9743 7.93334 15.0384 7.61076C15.1025 7.28818 15.2451 6.98638 15.4537 6.73211C15.6623 6.47783 15.9304 6.27892 16.2342 6.15299C16.5381 6.02706 16.8683 5.978 17.1956 6.01016C17.5229 6.04232 17.8372 6.15471 18.1107 6.33736C18.3842 6.52001 18.6085 6.7673 18.7636 7.05731C18.9187 7.34732 18.9999 7.67112 19 8.00001C19.329 7.99977 19.6529 8.08069 19.9432 8.23559C20.2334 8.3905 20.4809 8.6146 20.6638 8.88804C20.8467 9.16148 20.9593 9.47582 20.9917 9.8032C21.0241 10.1306 20.9752 10.4609 20.8494 10.7649C20.7236 11.0688 20.5247 11.3371 20.2705 11.5458C20.0162 11.7546 19.7144 11.8974 19.3917 11.9616C19.0691 12.0258 18.7356 12.0094 18.4208 11.9139C18.106 11.8184 17.8196 11.6467 17.587 11.414L14 15" stroke="black" stroke-width="2" stroke-linecap="round" stroke-linejoin="round"/>
<path d="M12 13L8.41399 9.41501C8.64659 9.18248 8.81825 8.89618 8.91378 8.58147C9.0093 8.26676 9.02574 7.93334 8.96164 7.61076C8.89753 7.28818 8.75486 6.98638 8.54627 6.73211C8.33768 6.47783 8.06959 6.27892 7.76576 6.15299C7.46194 6.02706 7.13174 5.978 6.80443 6.01016C6.47711 6.04232 6.16278 6.15471 5.88927 6.33736C5.61576 6.52001 5.39152 6.7673 5.2364 7.05731C5.08129 7.34732 5.00009 7.67112 4.99999 8.00001C4.67102 7.99977 4.34706 8.08069 4.05684 8.23559C3.76662 8.3905 3.51908 8.6146 3.33618 8.88804C3.15327 9.16148 3.04065 9.47582 3.00827 9.8032C2.9759 10.1306 3.02478 10.4609 3.15059 10.7649C3.2764 11.0688 3.47525 11.3371 3.72951 11.5458C3.98378 11.7546 4.28561 11.8974 4.60826 11.9616C4.93091 12.0258 5.26441 12.0094 5.57922 11.9139C5.89402 11.8184 6.18041 11.6467 6.41299 11.414L9.99999 15" stroke="black" stroke-width="2" stroke-linecap="round" stroke-linejoin="round"/>
<path d="M3 20H21C20.825 18.329 20.954 16.655 19 15H5C3.667 16 3 17.667 3 20Z" stroke="black" stroke-width="2" stroke-linecap="round" stroke-linejoin="round"/>
</svg>
