<svg width="24" height="24" viewBox="0 0 24 24" fill="none" xmlns="http://www.w3.org/2000/svg">
<path d="M16.322 16.322C15.7585 17.0031 15.3118 17.7728 15 18.6C14.6897 19.1864 14.2535 19.697 13.7228 20.0951C13.192 20.4932 12.5798 20.769 11.93 20.9028C11.2802 21.0366 10.6088 21.025 9.96393 20.869C9.31908 20.7129 8.71673 20.4161 8.2 20M6 9.99999C6 8.85399 6.277 7.75499 6.78 6.78099L6 9.99999ZM8.572 4.57299C9.84858 3.53038 11.4521 2.97167 13.1002 2.99529C14.7483 3.0189 16.3352 3.62332 17.5814 4.70208C18.8276 5.78085 19.6531 7.26476 19.9126 8.89244C20.1721 10.5201 19.8489 12.1872 19 13.6C18.8017 13.8643 18.5905 14.1186 18.367 14.362L8.572 4.57299Z" stroke="black" stroke-width="2" stroke-linecap="round" stroke-linejoin="round"/>
<path d="M11.42 7.41401C11.9949 7.05746 12.6735 6.90572 13.3456 6.98341C14.0176 7.06111 14.6437 7.36367 15.1221 7.84199C15.6006 8.32031 15.9033 8.94629 15.9811 9.61832C16.059 10.2904 15.9074 10.969 15.551 11.544" stroke="black" stroke-width="2" stroke-linecap="round" stroke-linejoin="round"/>
<path d="M3 3L21 21" stroke="black" stroke-width="2" stroke-linecap="round" stroke-linejoin="round"/>
</svg>
