<svg width="24" height="24" viewBox="0 0 24 24" fill="none" xmlns="http://www.w3.org/2000/svg">
<path d="M6 13L10 9L14 5M4 20L14 10L4 20ZM14 5V10H19L14 5ZM10 9V14H15L10 9ZM6 13V18H11L6 13Z" stroke="black" stroke-width="2" stroke-linecap="round" stroke-linejoin="round"/>
<path d="M11 18L15 14L19 10M19 10C19.638 9.364 20 8.485 20 7.514C19.9999 7.05232 19.9088 6.59519 19.732 6.16871C19.5551 5.74224 19.296 5.35478 18.9694 5.02846C18.6428 4.70214 18.2551 4.44336 17.8285 4.26689C17.4019 4.09043 16.9447 3.99974 16.483 4C15.513 4 14.636 4.367 14 5L19 10Z" stroke="black" stroke-width="2" stroke-linecap="round" stroke-linejoin="round"/>
</svg>
