<svg width="24" height="24" viewBox="0 0 24 24" fill="none" xmlns="http://www.w3.org/2000/svg">
<path d="M12 14C13.1046 14 14 13.1046 14 12C14 10.8954 13.1046 10 12 10C10.8954 10 10 10.8954 10 12C10 13.1046 10.8954 14 12 14Z" stroke="black" stroke-width="2" stroke-linecap="round" stroke-linejoin="round"/>
<path d="M8.5 15.5L7.5 16.5M3 12H7H3ZM12 3V7V3ZM17 12H21H17ZM12 17V21V17ZM7.5 7.5L8.5 8.5L7.5 7.5ZM16.5 7.5L15.5 8.5L16.5 7.5ZM15.5 15.5L16.5 16.5L15.5 15.5Z" stroke="black" stroke-width="2" stroke-linecap="round" stroke-linejoin="round"/>
</svg>
