<svg width="24" height="24" viewBox="0 0 24 24" fill="none" xmlns="http://www.w3.org/2000/svg">
<path d="M9 3H15" stroke="black" stroke-width="2" stroke-linecap="round" stroke-linejoin="round"/>
<path d="M10 9H14" stroke="black" stroke-width="2" stroke-linecap="round" stroke-linejoin="round"/>
<path d="M10 3V9L6.00001 20C5.95176 20.0971 5.92671 20.204 5.92683 20.3124C5.92696 20.4208 5.95226 20.5277 6.00074 20.6246C6.04921 20.7216 6.11954 20.806 6.20618 20.8711C6.29282 20.9362 6.3934 20.9804 6.50001 21H17.5C17.6066 20.9804 17.7072 20.9362 17.7938 20.8711C17.8805 20.806 17.9508 20.7216 17.9993 20.6246C18.0478 20.5277 18.073 20.4208 18.0732 20.3124C18.0733 20.204 18.0483 20.0971 18 20L14 9V3" stroke="black" stroke-width="2" stroke-linecap="round" stroke-linejoin="round"/>
</svg>
