<svg width="14" height="14" viewBox="0 0 14 14" fill="none" xmlns="http://www.w3.org/2000/svg">
<mask id="mask0_1158_12828" style="mask-type:alpha" maskUnits="userSpaceOnUse" x="0" y="0" width="14" height="14">
<rect width="14" height="14" fill="#C4C4C4"/>
</mask>
<g mask="url(#mask0_1158_12828)">
<path d="M10.5 7C10.5 6.82359 10.4284 6.66129 10.2924 6.53427L4.62372 1.05847C4.49489 0.938508 4.33742 0.875 4.15133 0.875C3.7863 0.875 3.5 1.1502 3.5 1.51714C3.5 1.69355 3.57157 1.85585 3.68609 1.97581L8.89673 7L3.68609 12.0242C3.57157 12.1442 3.5 12.2994 3.5 12.4829C3.5 12.8498 3.7863 13.125 4.15133 13.125C4.33742 13.125 4.49489 13.0615 4.62372 12.9345L10.2924 7.46573C10.4284 7.33165 10.5 7.17641 10.5 7Z" fill="#B5B4BA"/>
</g>
</svg>
