<svg width="24" height="24" viewBox="0 0 24 24" fill="none" xmlns="http://www.w3.org/2000/svg">
<path d="M3 3L21 21" stroke="black" stroke-width="2" stroke-linecap="round" stroke-linejoin="round"/>
<path d="M17 7.5C17 7.10218 17.158 6.72064 17.4393 6.43934C17.7206 6.15804 18.1022 6 18.5 6C18.8978 6 19.2794 6.15804 19.5607 6.43934C19.842 6.72064 20 7.10218 20 7.5V16C20 17.5913 19.3679 19.1174 18.2426 20.2426C17.1174 21.3679 15.5913 22 14 22H12C9.886 21.708 8.044 20.603 7 19L4.3 13.75C4.03478 13.3853 3.92529 12.9302 3.99562 12.4848C4.06595 12.0394 4.31033 11.6402 4.675 11.375C5.03967 11.1098 5.49476 11.0003 5.94016 11.0706C6.38556 11.1409 6.78478 11.3853 7.05 11.75L7.95 13.5M8 13.5V8V13.5ZM8.44 4.438C8.64989 4.22837 8.91723 4.08568 9.20822 4.02797C9.4992 3.97027 9.80076 4.00014 10.0748 4.11381C10.3488 4.22748 10.5829 4.41985 10.7476 4.66658C10.9123 4.91332 11.0001 5.20335 11 5.5V7L8.44 4.438ZM11 11.008V12V11.008ZM11 5.5V3.5C11 3.30302 11.0388 3.10796 11.1142 2.92597C11.1896 2.74399 11.3001 2.57863 11.4393 2.43934C11.5786 2.30005 11.744 2.18956 11.926 2.11418C12.108 2.0388 12.303 2 12.5 2C12.697 2 12.892 2.0388 13.074 2.11418C13.256 2.18956 13.4214 2.30005 13.5607 2.43934C13.6999 2.57863 13.8104 2.74399 13.8858 2.92597C13.9612 3.10796 14 3.30302 14 3.5V10L11 5.5ZM14 5.5C14 5.10218 14.158 4.72064 14.4393 4.43934C14.7206 4.15804 15.1022 4 15.5 4C15.8978 4 16.2794 4.15804 16.5607 4.43934C16.842 4.72064 17 5.10218 17 5.5V12L14 5.5Z" stroke="black" stroke-width="2" stroke-linecap="round" stroke-linejoin="round"/>
</svg>
