<svg width="24" height="24" viewBox="0 0 24 24" fill="none" xmlns="http://www.w3.org/2000/svg">
<path d="M8 13V10.5C8 10.1022 8.15804 9.72064 8.43934 9.43934C8.72064 9.15804 9.10218 9 9.5 9C9.89782 9 10.2794 9.15804 10.5607 9.43934C10.842 9.72064 11 10.1022 11 10.5V12" stroke="black" stroke-width="2" stroke-linecap="round" stroke-linejoin="round"/>
<path d="M14 10.5C14 10.1022 14.158 9.72064 14.4393 9.43934C14.7206 9.15804 15.1022 9 15.5 9C15.8978 9 16.2794 9.15804 16.5607 9.43934C16.842 9.72064 17 10.1022 17 10.5V12" stroke="black" stroke-width="2" stroke-linecap="round" stroke-linejoin="round"/>
<path d="M17 11.5C17 11.1022 17.158 10.7206 17.4393 10.4393C17.7206 10.158 18.1022 10 18.5 10C18.8978 10 19.2794 10.158 19.5607 10.4393C19.842 10.7206 20 11.1022 20 11.5V16C20 17.5913 19.3679 19.1174 18.2426 20.2426C17.1174 21.3679 15.5913 22 14 22H12H12.208C11.2143 22.0002 10.2362 21.7535 9.36138 21.2823C8.48658 20.811 7.74252 20.1299 7.196 19.3C7.13041 19.2002 7.06508 19.1002 7 19C6.688 18.521 5.593 16.612 3.714 13.272C3.52245 12.9315 3.47128 12.5298 3.57138 12.1522C3.67148 11.7745 3.91495 11.4509 4.25 11.25C4.60688 11.0359 5.02507 10.9471 5.43816 10.9978C5.85125 11.0486 6.23554 11.2359 6.53 11.53L8 13" stroke="black" stroke-width="2" stroke-linecap="round" stroke-linejoin="round"/>
<path d="M11 11.5V3.5C11 3.30302 11.0388 3.10796 11.1142 2.92597C11.1896 2.74399 11.3001 2.57863 11.4393 2.43934C11.5786 2.30005 11.744 2.18956 11.926 2.11418C12.108 2.0388 12.303 2 12.5 2C12.697 2 12.892 2.0388 13.074 2.11418C13.256 2.18956 13.4214 2.30005 13.5607 2.43934C13.6999 2.57863 13.8104 2.74399 13.8858 2.92597C13.9612 3.10796 14 3.30302 14 3.5V12" stroke="black" stroke-width="2" stroke-linecap="round" stroke-linejoin="round"/>
</svg>
