<svg width="24" height="24" viewBox="0 0 24 24" fill="none" xmlns="http://www.w3.org/2000/svg">
<path d="M15 7C15 6.40666 14.8241 5.82664 14.4944 5.33329C14.1648 4.83994 13.6962 4.45543 13.1481 4.22836C12.5999 4.0013 11.9967 3.94189 11.4147 4.05765C10.8328 4.1734 10.2983 4.45912 9.87869 4.87868C9.45914 5.29824 9.17341 5.83279 9.05766 6.41473C8.9419 6.99667 9.00131 7.59987 9.22837 8.14805C9.45544 8.69623 9.83996 9.16477 10.3333 9.49441C10.8267 9.82405 11.4067 10 12 10V12L15 7ZM12 12L3.37601 17.488C3.2262 17.5832 3.11135 17.7245 3.0487 17.8906C2.98605 18.0567 2.979 18.2387 3.0286 18.4091C3.0782 18.5796 3.18178 18.7293 3.32377 18.8359C3.46576 18.9424 3.63849 19 3.81601 19H20.184C20.3615 19 20.5343 18.9424 20.6763 18.8359C20.8182 18.7293 20.9218 18.5796 20.9714 18.4091C21.021 18.2387 21.014 18.0567 20.9513 17.8906C20.8887 17.7245 20.7738 17.5832 20.624 17.488L12 12V12Z" stroke="black" stroke-width="2" stroke-linecap="round" stroke-linejoin="round"/>
</svg>
