<svg width="24" height="24" viewBox="0 0 24 24" fill="none" xmlns="http://www.w3.org/2000/svg">
<path d="M3 3L21 21" stroke="black" stroke-width="2" stroke-linecap="round" stroke-linejoin="round"/>
<path d="M7 13H6C4.89543 13 4 13.8954 4 15V18C4 19.1046 4.89543 20 6 20H7C8.10457 20 9 19.1046 9 18V15C9 13.8954 8.10457 13 7 13Z" stroke="black" stroke-width="2" stroke-linecap="round" stroke-linejoin="round"/>
<path d="M19.411 19.417C19.05 19.777 18.551 20 18 20H17C16.4696 20 15.9609 19.7893 15.5858 19.4142C15.2107 19.0391 15 18.5304 15 18V15M17 13H18C18.5304 13 19.0391 13.2107 19.4142 13.5858C19.7893 13.9609 20 14.4696 20 15V16L17 13Z" stroke="black" stroke-width="2" stroke-linecap="round" stroke-linejoin="round"/>
<path d="M8.713 4.704C9.93158 4.15482 11.2683 3.91971 12.6012 4.02015C13.934 4.12059 15.2204 4.55337 16.3429 5.27897C17.4654 6.00457 18.3883 6.99986 19.0271 8.17392C19.6659 9.34798 20.0004 10.6634 20 12V15M4 15V12C4 9.79 4.896 7.79 6.344 6.342L4 15Z" stroke="black" stroke-width="2" stroke-linecap="round" stroke-linejoin="round"/>
</svg>
