<svg width="24" height="24" viewBox="0 0 24 24" fill="none" xmlns="http://www.w3.org/2000/svg">
<path fill-rule="evenodd" clip-rule="evenodd" d="M12.7071 2.29289C12.3166 1.90237 11.6834 1.90237 11.2929 2.29289L2.29289 11.2929C2.00689 11.5789 1.92134 12.009 2.07612 12.3827C2.2309 12.7564 2.59554 13 3 13H4V19C4 19.7957 4.31607 20.5587 4.87868 21.1213C5.44129 21.6839 6.20435 22 7 22H17C17.7956 22 18.5587 21.6839 19.1213 21.1213C19.6839 20.5587 20 19.7957 20 19V13H21C21.4045 13 21.7691 12.7564 21.9239 12.3827C22.0787 12.009 21.9931 11.5789 21.7071 11.2929L12.7071 2.29289Z" fill="black"/>
<path d="M9 21V15C9 14.4696 9.21071 13.9609 9.58579 13.5858C9.96086 13.2107 10.4696 13 11 13H13C13.5304 13 14.0391 13.2107 14.4142 13.5858C14.7893 13.9609 15 14.4696 15 15V21" stroke="white" stroke-width="2" stroke-linecap="square" stroke-linejoin="round"/>
</svg>
