<svg width="24" height="24" viewBox="0 0 24 24" fill="none" xmlns="http://www.w3.org/2000/svg">
<path d="M17.657 11.004C17.9768 10.0991 18.0748 9.13073 17.9429 8.18012C17.811 7.22951 17.453 6.32441 16.8989 5.54079C16.3448 4.75718 15.6108 4.11791 14.7586 3.67664C13.9063 3.23538 12.9606 3.00499 12.0009 3.00482C11.0412 3.00465 10.0954 3.2347 9.24302 3.67567C8.39061 4.11663 7.65641 4.75564 7.10205 5.53906C6.54769 6.32248 6.18935 7.22745 6.0571 8.17802C5.92485 9.12858 6.02255 10.097 6.342 11.002" stroke="black" stroke-width="2" stroke-linecap="round" stroke-linejoin="round"/>
<path d="M6.342 11L12 22L17.657 11.004L6.342 11Z" stroke="black" stroke-width="2" stroke-linecap="round" stroke-linejoin="round"/>
</svg>
