<svg width="24" height="24" viewBox="0 0 24 24" fill="none" xmlns="http://www.w3.org/2000/svg">
<path d="M3 3L21 21" stroke="black" stroke-width="2" stroke-linecap="round" stroke-linejoin="round"/>
<path d="M15 11C15 10.2044 14.6839 9.44129 14.1213 8.87868C13.5587 8.31607 12.7957 8 12 8M9.44 9.435C9.0884 10.0096 8.94043 10.6858 9.01991 11.3548C9.09939 12.0237 9.4017 12.6464 9.87815 13.1226C10.3546 13.5989 10.9775 13.9009 11.6464 13.98C12.3154 14.0592 12.9916 13.9109 13.566 13.559L9.44 9.435Z" stroke="black" stroke-width="2" stroke-linecap="round" stroke-linejoin="round"/>
<path d="M17.16 17.156L13.415 20.9C13.04 21.2746 12.5316 21.4851 12.0015 21.4851C11.4714 21.4851 10.963 21.2746 10.588 20.9L6.344 16.657C4.9304 15.2436 4.09715 13.3522 4.00831 11.3552C3.91947 9.3582 4.58148 7.40029 5.864 5.86698M8.048 4.04198C9.57104 3.17471 11.3367 2.83161 13.0737 3.0654C14.8107 3.29919 16.4229 4.09693 17.6624 5.33602C18.902 6.5751 19.7003 8.18697 19.9347 9.92388C20.1692 11.6608 19.8267 13.4266 18.96 14.95L8.048 4.04198Z" stroke="black" stroke-width="2" stroke-linecap="round" stroke-linejoin="round"/>
</svg>
