<svg width="24" height="24" viewBox="0 0 24 24" fill="none" xmlns="http://www.w3.org/2000/svg">
<path d="M8 4H18C18.5304 4 19.0391 4.21071 19.4142 4.58579C19.7893 4.96086 20 5.46957 20 6V16M19.42 19.41C19.2339 19.5972 19.0127 19.7457 18.769 19.8469C18.5253 19.9482 18.2639 20.0002 18 20H6C5.46957 20 4.96086 19.7893 4.58579 19.4142C4.21071 19.0391 4 18.5304 4 18V6C4 5.446 4.225 4.945 4.588 4.583L19.42 19.41Z" stroke="black" stroke-width="2" stroke-linecap="round" stroke-linejoin="round"/>
<path d="M14.712 10.716C14.4129 10.0863 13.9047 9.57989 13.274 9.28302M9.885 9.87202C9.60287 10.1499 9.37856 10.4809 9.225 10.846C9.07144 11.211 8.99167 11.6028 8.9903 11.9988C8.98892 12.3949 9.06597 12.7872 9.21699 13.1533C9.36801 13.5194 9.59002 13.852 9.87021 14.1318C10.1504 14.4117 10.4832 14.6333 10.8495 14.7839C11.2158 14.9345 11.6082 15.0111 12.0042 15.0092C12.4002 15.0074 12.792 14.9272 13.1568 14.7732C13.5217 14.6192 13.8524 14.3945 14.13 14.112L9.885 9.87202Z" stroke="black" stroke-width="2" stroke-linecap="round" stroke-linejoin="round"/>
<path d="M3 3L21 21" stroke="black" stroke-width="2" stroke-linecap="round" stroke-linejoin="round"/>
</svg>
