<svg width="24" height="24" viewBox="0 0 24 24" fill="none" xmlns="http://www.w3.org/2000/svg">
<path d="M15.002 12.8999C16.0551 13.1143 17.1492 12.9836 18.1222 12.5272C19.0951 12.0709 19.8952 11.3132 20.4038 10.3665C20.9123 9.41979 21.1023 8.3344 20.9456 7.27122C20.7889 6.20804 20.2938 5.22364 19.5337 4.46393C18.7736 3.70422 17.7889 3.20963 16.7257 3.05345C15.6624 2.89728 14.5771 3.08784 13.6307 3.59688C12.6842 4.10593 11.9269 4.90638 11.4711 5.87959C11.0153 6.8528 10.8851 7.94697 11.1 8.99995" stroke="black" stroke-width="2" stroke-linecap="round" stroke-linejoin="round"/>
<path d="M15.002 12.9L11.1 9.00098L3.58701 17.585C3.21173 17.9599 3.00074 18.4685 3.00046 18.9989C3.00032 19.2616 3.05191 19.5217 3.1523 19.7644C3.25268 20.0071 3.39989 20.2277 3.58551 20.4135C3.77113 20.5993 3.99154 20.7467 4.23414 20.8474C4.47675 20.948 4.7368 20.9999 4.99945 21C5.5299 21.0003 6.03873 20.7899 6.41401 20.415L15.002 12.9V12.9Z" stroke="black" stroke-width="2" stroke-linecap="round" stroke-linejoin="round"/>
</svg>
