<svg width="24" height="24" viewBox="0 0 24 24" fill="none" xmlns="http://www.w3.org/2000/svg">
<path d="M12 2.99994C12.132 2.99994 12.263 2.99994 12.393 2.99994C11.1083 4.19365 10.2826 5.79979 10.0593 7.53916C9.83598 9.27854 10.2293 11.0412 11.1707 12.5207C12.1122 14.0002 13.5424 15.103 15.2126 15.6374C16.8828 16.1718 18.6875 16.1041 20.313 15.4459C19.6877 16.9504 18.6658 18.257 17.3562 19.2262C16.0466 20.1954 14.4984 20.791 12.8769 20.9493C11.2554 21.1077 9.62126 20.8229 8.14888 20.1253C6.67651 19.4278 5.42111 18.3436 4.51658 16.9885C3.61206 15.6334 3.09235 14.0582 3.01288 12.4309C2.93341 10.8036 3.29718 9.18524 4.06537 7.74846C4.83356 6.31167 5.97736 5.11037 7.37476 4.27268C8.77216 3.43499 10.3707 2.99234 12 2.99194V2.99994Z" stroke="black" stroke-width="2" stroke-linecap="round" stroke-linejoin="round"/>
<path d="M17 4C17 4.53043 17.2107 5.03914 17.5858 5.41421C17.9609 5.78929 18.4696 6 19 6C18.4696 6 17.9609 6.21071 17.5858 6.58579C17.2107 6.96086 17 7.46957 17 8C17 7.46957 16.7893 6.96086 16.4142 6.58579C16.0391 6.21071 15.5304 6 15 6C15.5304 6 16.0391 5.78929 16.4142 5.41421C16.7893 5.03914 17 4.53043 17 4Z" stroke="black" stroke-width="2" stroke-linecap="round" stroke-linejoin="round"/>
<path d="M20 10V12M19 11H21H19Z" stroke="black" stroke-width="2" stroke-linecap="round" stroke-linejoin="round"/>
</svg>
