<svg width="24" height="24" viewBox="0 0 24 24" fill="none" xmlns="http://www.w3.org/2000/svg">
<path d="M5.63599 5.63598C6.53143 4.74039 7.6058 4.04386 8.78887 3.59193C9.97194 3.14 11.2371 2.94284 12.5016 3.01335C13.766 3.08385 15.0014 3.42044 16.1269 4.00109C17.2524 4.58174 18.2427 5.39339 19.033 6.38298L13.414 12L19.033 17.617C18.2687 18.5724 17.3176 19.3619 16.2378 19.9373C15.1581 20.5127 13.9724 20.8619 12.7531 20.9636C11.5338 21.0652 10.3066 20.9172 9.14651 20.5286C7.98637 20.14 6.91766 19.5189 6.00566 18.7033C5.09367 17.8877 4.35754 16.8947 3.84227 15.785C3.327 14.6753 3.0434 13.4722 3.0088 12.2492C2.9742 11.0262 3.18933 9.80896 3.64105 8.67191C4.09276 7.53485 4.77157 6.50183 5.63599 5.63598V5.63598Z" stroke="black" stroke-width="2" stroke-linecap="round" stroke-linejoin="round"/>
<path d="M11.5 8.5C12.0523 8.5 12.5 8.05228 12.5 7.5C12.5 6.94772 12.0523 6.5 11.5 6.5C10.9477 6.5 10.5 6.94772 10.5 7.5C10.5 8.05228 10.9477 8.5 11.5 8.5Z" fill="black" stroke="black" stroke-width="2" stroke-linecap="round" stroke-linejoin="round"/>
</svg>
