<svg width="24" height="24" viewBox="0 0 24 24" fill="none" xmlns="http://www.w3.org/2000/svg">
<path d="M4.338 5.52998C9.444 7.46198 14.549 7.46198 19.655 5.53198C19.8058 5.47656 19.9677 5.45828 20.127 5.47868C20.2864 5.49909 20.4384 5.55758 20.5704 5.6492C20.7023 5.74083 20.8103 5.8629 20.8851 6.00507C20.9598 6.14725 20.9993 6.30534 21 6.46598V17.466C21 18.158 20.308 18.666 19.66 18.428C14.553 16.496 9.446 16.496 4.339 18.428C3.691 18.674 3 18.186 3 17.493V6.46598C3.00098 6.3061 3.04028 6.14879 3.11461 6.00724C3.18894 5.86568 3.29612 5.74401 3.42718 5.65243C3.55823 5.56085 3.70933 5.50203 3.86781 5.48089C4.02629 5.45976 4.18753 5.47694 4.338 5.53098V5.52998Z" stroke="black" stroke-width="2" stroke-linecap="round" stroke-linejoin="round"/>
</svg>
