<svg width="24" height="24" viewBox="0 0 24 24" fill="none" xmlns="http://www.w3.org/2000/svg">
<path d="M18.463 4.338C16.531 9.444 16.531 14.549 18.463 19.655C18.5184 19.8058 18.5367 19.9677 18.5163 20.127C18.4959 20.2864 18.4374 20.4384 18.3458 20.5704C18.2542 20.7023 18.1321 20.8103 17.9899 20.8851C17.8477 20.9598 17.6896 20.9993 17.529 21H6.52901C5.83701 21 5.32101 20.308 5.56701 19.66C7.49901 14.553 7.49901 9.446 5.56701 4.339C5.32101 3.691 5.81001 3 6.50201 3H17.53C18.223 3 18.71 3.691 18.465 4.338H18.463Z" stroke="black" stroke-width="2" stroke-linecap="round" stroke-linejoin="round"/>
</svg>
