<svg width="24" height="24" viewBox="0 0 24 24" fill="none" xmlns="http://www.w3.org/2000/svg">
<path d="M6.141 4.16294L18.141 5.87694C18.3794 5.9109 18.5975 6.02972 18.7553 6.21159C18.9131 6.39346 19 6.62616 19 6.86694V17.1329C19 17.3737 18.9131 17.6064 18.7553 17.7883C18.5975 17.9702 18.3794 18.089 18.141 18.1229L6.141 19.8369C5.9992 19.8571 5.85471 19.8466 5.71731 19.8061C5.57992 19.7657 5.45283 19.6961 5.34464 19.6023C5.23645 19.5084 5.14969 19.3924 5.09023 19.2621C5.03077 19.1317 5 18.9902 5 18.8469V5.15294C5 5.00971 5.03077 4.86815 5.09023 4.73783C5.14969 4.60752 5.23645 4.49151 5.34464 4.39764C5.45283 4.30377 5.57992 4.23423 5.71731 4.19374C5.85471 4.15325 5.9992 4.14275 6.141 4.16294V4.16294Z" stroke="black" stroke-width="2" stroke-linecap="round" stroke-linejoin="round"/>
</svg>
