<svg width="24" height="24" viewBox="0 0 24 24" fill="none" xmlns="http://www.w3.org/2000/svg">
<path d="M4.49999 12.5L12.5 4.50004C13.4283 3.57178 14.6872 3.05029 16 3.05029C17.3127 3.05029 18.5717 3.57178 19.5 4.50004C20.4283 5.4283 20.9497 6.68729 20.9497 8.00004C20.9497 9.3128 20.4283 10.5718 19.5 11.5L11.5 19.5C10.5717 20.4283 9.31275 20.9498 7.99999 20.9498C6.68724 20.9498 5.42825 20.4283 4.49999 19.5C3.57174 18.5718 3.05025 17.3128 3.05025 16C3.05025 14.6873 3.57174 13.4283 4.49999 12.5Z" fill="black"/>
<path d="M4.49999 12.5L12.5 4.50004C13.4283 3.57178 14.6872 3.05029 16 3.05029C17.3127 3.05029 18.5717 3.57178 19.5 4.50004C20.4283 5.4283 20.9497 6.68729 20.9497 8.00004C20.9497 9.3128 20.4283 10.5718 19.5 11.5L11.5 19.5C10.5717 20.4283 9.31275 20.9498 7.99999 20.9498C6.68724 20.9498 5.42825 20.4283 4.49999 19.5C3.57174 18.5718 3.05025 17.3128 3.05025 16C3.05025 14.6873 3.57174 13.4283 4.49999 12.5" stroke="black" stroke-width="2" stroke-linecap="round" stroke-linejoin="round"/>
<path d="M10 10L14 14" stroke="white" stroke-width="2" stroke-linecap="round" stroke-linejoin="round"/>
</svg>
