<svg width="24" height="24" viewBox="0 0 24 24" fill="none" xmlns="http://www.w3.org/2000/svg">
<path d="M12 16C13.6569 16 15 14.6569 15 13C15 11.3431 13.6569 10 12 10C10.3431 10 9 11.3431 9 13C9 14.6569 10.3431 16 12 16Z" stroke="black" stroke-width="2" stroke-linecap="round" stroke-linejoin="round"/>
<path d="M14.167 10.5C14.889 8.962 15.323 7.457 15.47 5.986C15.69 4.356 14.708 3 12 3C9.29199 3 8.30999 4.357 8.52999 5.986C8.67699 7.457 9.11099 8.962 9.83299 10.5" stroke="black" stroke-width="2" stroke-linecap="round" stroke-linejoin="round"/>
<path d="M13.169 16.751C14.139 18.146 15.226 19.274 16.426 20.137C17.726 21.143 19.393 20.97 20.747 18.625C22.101 16.28 21.417 14.751 19.897 14.127C18.549 13.519 17.029 13.142 15.335 12.999" stroke="black" stroke-width="2" stroke-linecap="round" stroke-linejoin="round"/>
<path d="M8.664 12.999C6.971 13.142 5.451 13.519 4.104 14.127C2.582 14.75 1.898 16.28 3.252 18.625C4.606 20.97 6.272 21.142 7.573 20.137C8.773 19.274 9.86 18.146 10.831 16.751" stroke="black" stroke-width="2" stroke-linecap="round" stroke-linejoin="round"/>
</svg>
