<svg width="24" height="24" viewBox="0 0 24 24" fill="none" xmlns="http://www.w3.org/2000/svg">
<path d="M7.05025 11.0384L7.05025 7.05028M10.0908 4.00972L10.5858 3.51474C10.9609 3.13967 11.4696 2.92896 12 2.92896C12.5304 2.92896 13.0391 3.13967 13.4142 3.51474L20.4853 10.5858C20.8604 10.9609 21.0711 11.4696 21.0711 12C21.0711 12.5305 20.8604 13.0392 20.4853 13.4142L13.4142 20.4853C13.0391 20.8604 12.5304 21.0711 12 21.0711C11.4696 21.0711 10.9609 20.8604 10.5858 20.4853L3.51471 13.4142C3.13964 13.0392 2.92893 12.5305 2.92893 12C2.92893 11.4696 3.13964 10.9609 3.51472 10.5858L7.05025 7.05028L3.06217 7.05027L10.0908 4.00972Z" stroke="black" stroke-width="2" stroke-linecap="round" stroke-linejoin="round"/>
</svg>
