<svg width="24" height="24" viewBox="0 0 24 24" fill="none" xmlns="http://www.w3.org/2000/svg">
<path d="M9 15V20H4M15 4.54997C14.0217 4.15601 12.9753 3.9586 11.9207 3.96902C10.866 3.97944 9.82375 4.19749 8.85338 4.61071C7.88301 5.02393 7.00353 5.62423 6.26515 6.37734C5.52678 7.13045 4.94397 8.02162 4.55 8.99997C3.75435 10.9758 3.7762 13.1868 4.61074 15.1466C5.44527 17.1064 7.02414 18.6543 9 19.45L15 4.54997Z" stroke="black" stroke-width="2" stroke-linecap="round" stroke-linejoin="round"/>
<path d="M18.37 7.16003V7.17003" stroke="black" stroke-width="2" stroke-linecap="round" stroke-linejoin="round"/>
<path d="M13 19.9399V19.9499" stroke="black" stroke-width="2" stroke-linecap="round" stroke-linejoin="round"/>
<path d="M16.84 18.37V18.38" stroke="black" stroke-width="2" stroke-linecap="round" stroke-linejoin="round"/>
<path d="M19.37 15.1V15.11" stroke="black" stroke-width="2" stroke-linecap="round" stroke-linejoin="round"/>
<path d="M19.94 11V11.01" stroke="black" stroke-width="2" stroke-linecap="round" stroke-linejoin="round"/>
</svg>
