<svg width="24" height="24" viewBox="0 0 24 24" fill="none" xmlns="http://www.w3.org/2000/svg">
<path d="M19 13H5C3.89543 13 3 13.8954 3 15V19C3 20.1046 3.89543 21 5 21H19C20.1046 21 21 20.1046 21 19V15C21 13.8954 20.1046 13 19 13Z" stroke="black" stroke-width="2" stroke-linecap="round" stroke-linejoin="round"/>
<path d="M17 17V17.01" stroke="black" stroke-width="2" stroke-linecap="round" stroke-linejoin="round"/>
<path d="M13 17V17.01" stroke="black" stroke-width="2" stroke-linecap="round" stroke-linejoin="round"/>
<path d="M15 13V11" stroke="black" stroke-width="2" stroke-linecap="round" stroke-linejoin="round"/>
<path d="M11.75 8.74994C12.1203 8.23379 12.6083 7.81327 13.1734 7.52318C13.7386 7.23309 14.3647 7.08179 15 7.08179C15.6353 7.08179 16.2614 7.23309 16.8266 7.52318C17.3917 7.81327 17.8797 8.23379 18.25 8.74994" stroke="black" stroke-width="2" stroke-linecap="round" stroke-linejoin="round"/>
<path d="M8.5 6.50001C9.24067 5.4677 10.2166 4.62665 11.3469 4.04648C12.4772 3.46631 13.7295 3.1637 15 3.1637C16.2705 3.1637 17.5228 3.46631 18.6531 4.04648C19.7834 4.62665 20.7593 5.4677 21.5 6.50001" stroke="black" stroke-width="2" stroke-linecap="round" stroke-linejoin="round"/>
</svg>
