<svg width="24" height="24" viewBox="0 0 24 24" fill="none" xmlns="http://www.w3.org/2000/svg">
<path d="M20.042 16.045C20.8942 14.354 21.1912 12.4372 20.8909 10.5675C20.5906 8.69787 19.7082 6.97056 18.3693 5.63145C17.0304 4.29233 15.3032 3.40965 13.4336 3.10902C11.564 2.8084 9.64719 3.10514 7.956 3.95703M5.634 5.63803C3.96894 7.33056 3.04014 9.61247 3.0499 11.9867C3.05966 14.3609 4.00719 16.6351 5.68611 18.3139C7.36502 19.9927 9.6393 20.9401 12.0135 20.9496C14.3878 20.9592 16.6696 20.0302 18.362 18.365L5.634 5.63803Z" stroke="black" stroke-width="2" stroke-linecap="round" stroke-linejoin="round"/>
<path d="M16 12H18" stroke="black" stroke-width="2" stroke-linecap="round" stroke-linejoin="round"/>
<path d="M13 15H15" stroke="black" stroke-width="2" stroke-linecap="round" stroke-linejoin="round"/>
<path d="M13 18H14" stroke="black" stroke-width="2" stroke-linecap="round" stroke-linejoin="round"/>
<path d="M13 9H17" stroke="black" stroke-width="2" stroke-linecap="round" stroke-linejoin="round"/>
<path d="M13 6H14" stroke="black" stroke-width="2" stroke-linecap="round" stroke-linejoin="round"/>
<path d="M3 3L21 21" stroke="black" stroke-width="2" stroke-linecap="round" stroke-linejoin="round"/>
</svg>
