<svg width="24" height="24" viewBox="0 0 24 24" fill="none" xmlns="http://www.w3.org/2000/svg">
<path d="M3 3L21 21" stroke="black" stroke-width="2" stroke-linecap="round" stroke-linejoin="round"/>
<path d="M8.958 4.962C10.0654 4.46558 11.091 3.80406 12 3C14.3358 5.06658 17.3845 6.14257 20.5 6C20.958 7.55759 21.0951 9.1919 20.9031 10.804C20.7111 12.4161 20.194 13.9725 19.383 15.379M17.669 17.669C16.1263 19.2855 14.1629 20.4391 12 21C10.4432 20.5962 8.98348 19.8836 7.70755 18.9045C6.43161 17.9254 5.36551 16.6998 4.5726 15.3005C3.77968 13.9013 3.27614 12.3569 3.09188 10.7592C2.90762 9.16147 3.04641 7.54302 3.5 6C4.297 6.036 5.089 6 5.866 5.874L17.669 17.669Z" stroke="black" stroke-width="2" stroke-linecap="round" stroke-linejoin="round"/>
</svg>
