<svg width="24" height="24" viewBox="0 0 24 24" fill="none" xmlns="http://www.w3.org/2000/svg">
<path d="M12 2V8.5L15 10.22M10 4L12 5L14 4H10Z" stroke="black" stroke-width="2" stroke-linecap="round" stroke-linejoin="round"/>
<path d="M20.6602 7.00012L15.0311 10.2501L15.0415 13.7082M17.9282 6.26807L18.0622 8.50012L19.9282 9.73217L17.9282 6.26807Z" stroke="black" stroke-width="2" stroke-linecap="round" stroke-linejoin="round"/>
<path d="M20.6602 17.0001L15.0311 13.7501L12.0415 15.4882M19.9282 14.2681L18.0622 15.5001L17.9282 17.7322L19.9282 14.2681Z" stroke="black" stroke-width="2" stroke-linecap="round" stroke-linejoin="round"/>
<path d="M12 22V15.5L9 13.78M14 20L12 19L10 20H14Z" stroke="black" stroke-width="2" stroke-linecap="round" stroke-linejoin="round"/>
<path d="M3.33975 16.9999L8.96892 13.7499L8.95848 10.2918M6.0718 17.7319L5.93783 15.4999L4.0718 14.2678L6.0718 17.7319Z" stroke="black" stroke-width="2" stroke-linecap="round" stroke-linejoin="round"/>
<path d="M3.33975 6.99988L8.96892 10.2499L11.9585 8.51181M4.0718 9.73193L5.93783 8.49988L6.0718 6.26783L4.0718 9.73193Z" stroke="black" stroke-width="2" stroke-linecap="round" stroke-linejoin="round"/>
</svg>
