<svg width="24" height="24" viewBox="0 0 24 24" fill="none" xmlns="http://www.w3.org/2000/svg">
<path d="M3 3L21 21" stroke="black" stroke-width="2" stroke-linecap="round" stroke-linejoin="round"/>
<path d="M9.16601 9.177C8.41625 9.92756 7.99535 10.9452 7.99591 12.0061C7.99647 13.067 8.41845 14.0842 9.16901 14.834C9.91958 15.5838 10.9372 16.0047 11.9981 16.0041C13.059 16.0035 14.0762 15.5816 14.826 14.831M16 12C16 10.9391 15.5786 9.92172 14.8284 9.17157C14.0783 8.42143 13.0609 8 12 8L16 12Z" stroke="black" stroke-width="2" stroke-linecap="round" stroke-linejoin="round"/>
<path d="M6.3 17.7L5.6 18.4M3 12H4H3ZM12 3V4V3ZM20 12H21H20ZM12 20V21V20ZM5.6 5.6L6.3 6.3L5.6 5.6ZM18.4 5.6L17.7 6.3L18.4 5.6ZM17.7 17.7L18.4 18.4L17.7 17.7Z" stroke="black" stroke-width="2" stroke-linecap="round" stroke-linejoin="round"/>
</svg>
