<svg width="24" height="24" viewBox="0 0 24 24" fill="none" xmlns="http://www.w3.org/2000/svg">
<g clip-path="url(#clip0_1113_13183)">
<path d="M23.7192 5.28067L18.7192 0.280674C18.5306 0.098516 18.278 -0.00227842 18.0158 0C17.7536 0.00227842 17.5028 0.107447 17.3174 0.292855C17.132 0.478263 17.0269 0.729076 17.0246 0.991273C17.0223 1.25347 17.1231 1.50607 17.3052 1.69467L19.0982 3.48767L17.6122 4.97067C16.6518 4.26549 15.4712 3.92645 14.2829 4.01464C13.0947 4.10282 11.977 4.61244 11.1312 5.45167L5.06225 11.5237C4.41033 12.1721 3.89347 12.9434 3.54159 13.7929C3.18971 14.6423 3.00979 15.5532 3.01225 16.4727V19.5727L0.30525 22.2807C0.20974 22.3729 0.133558 22.4833 0.081149 22.6053C0.02874 22.7273 0.00115382 22.8585 0 22.9913C-0.00115382 23.124 0.0241479 23.2557 0.0744288 23.3786C0.12471 23.5015 0.198963 23.6132 0.292855 23.7071C0.386748 23.801 0.4984 23.8752 0.621296 23.9255C0.744193 23.9758 0.875872 24.0011 1.00865 23.9999C1.14143 23.9988 1.27265 23.9712 1.39465 23.9188C1.51666 23.8664 1.627 23.7902 1.71925 23.6947L4.42625 20.9877H7.52625C8.44573 20.9901 9.35657 20.8102 10.2061 20.4583C11.0556 20.1064 11.8268 19.5896 12.4752 18.9377L18.5472 12.8657C19.3871 12.0209 19.8973 10.9037 19.9857 9.71577C20.0741 8.52783 19.7349 7.34742 19.0292 6.38767L20.5122 4.90167L22.3052 6.69467C22.4938 6.87683 22.7464 6.97762 23.0086 6.97535C23.2708 6.97307 23.5217 6.8679 23.7071 6.68249C23.8925 6.49708 23.9976 6.24627 23.9999 5.98407C24.0022 5.72188 23.9014 5.46927 23.7192 5.28067Z" fill="black"/>
<path d="M5.09494 15.509L5.96794 13.554L7.70894 15.295C7.80445 15.3872 7.88063 15.4976 7.93304 15.6196C7.98545 15.7416 8.01304 15.8728 8.01419 16.0056C8.01534 16.1384 7.99004 16.2701 7.93976 16.393C7.88948 16.5158 7.81523 16.6275 7.72133 16.7214C7.62744 16.8153 7.51579 16.8895 7.39289 16.9398C7.26999 16.9901 7.13831 17.0154 7.00553 17.0142C6.87275 17.0131 6.74153 16.9855 6.61953 16.9331C6.49753 16.8807 6.38718 16.8045 6.29494 16.709L5.09494 15.509Z" fill="white"/>
<path d="M9.29294 13.707L7.49994 11.914L8.91394 10.5L10.7069 12.293C10.8891 12.4816 10.9899 12.7342 10.9876 12.9964C10.9853 13.2586 10.8802 13.5094 10.6948 13.6948C10.5093 13.8802 10.2585 13.9854 9.99634 13.9877C9.73414 13.9899 9.48154 13.8892 9.29294 13.707Z" fill="white"/>
<path d="M12.2929 10.707L10.4999 8.914L11.9139 7.5L13.7069 9.293C13.794 9.35498 13.9621 9.56185 13.985 9.91494C13.987 9.94195 13.9878 9.96912 13.9876 9.9964C13.9854 10.2528 13.8848 10.4983 13.7069 10.6824C13.649 10.7616 13.4786 10.9068 13.2042 10.964C13.1364 10.979 13.0668 10.9871 12.9963 10.9877C12.7341 10.9899 12.4815 10.8892 12.2929 10.707Z" fill="white"/>
</g>
<defs>
<clipPath id="clip0_1113_13183">
<rect width="24" height="24" fill="white"/>
</clipPath>
</defs>
</svg>
