<svg width="24" height="24" viewBox="0 0 24 24" fill="none" xmlns="http://www.w3.org/2000/svg">
<g clip-path="url(#clip0_937_7084)">
<path d="M23.707 5.29292L18.707 0.292919C18.5184 0.110761 18.2658 0.00996642 18.0036 0.0122448C17.7414 0.0145233 17.4906 0.119692 17.3052 0.3051C17.1198 0.490508 17.0146 0.741321 17.0123 1.00352C17.01 1.26571 17.1108 1.51832 17.293 1.70692L19.086 3.49992L17.6 4.98292C16.6396 4.27773 15.4589 3.9387 14.2707 4.02688C13.0825 4.11507 11.9648 4.62468 11.119 5.46392L5.05 11.5359C4.39807 12.1843 3.88122 12.9556 3.52934 13.8051C3.17746 14.6546 2.99754 15.5654 3 16.4849V19.5849L0.292997 22.2929C0.197487 22.3852 0.121305 22.4955 0.0688958 22.6175C0.0164868 22.7395 -0.0110994 22.8707 -0.0122532 23.0035C-0.013407 23.1363 0.0118947 23.268 0.0621756 23.3909C0.112456 23.5138 0.18671 23.6254 0.280602 23.7193C0.374495 23.8132 0.486147 23.8875 0.609043 23.9377C0.731939 23.988 0.863619 24.0133 0.996398 24.0122C1.12918 24.011 1.2604 23.9834 1.3824 23.931C1.50441 23.8786 1.61475 23.8024 1.707 23.7069L4.414 20.9999H7.51399C8.43348 21.0024 9.34432 20.8225 10.1938 20.4706C11.0433 20.1187 11.8146 19.6018 12.463 18.9499L18.535 12.8779C19.3749 12.0332 19.8851 10.916 19.9735 9.72802C20.0619 8.54007 19.7226 7.35967 19.017 6.39992L20.5 4.91392L22.293 6.70692C22.4816 6.88908 22.7342 6.98987 22.9964 6.98759C23.2586 6.98531 23.5094 6.88014 23.6948 6.69474C23.8802 6.50933 23.9854 6.25852 23.9877 5.99632C23.9899 5.73412 23.8892 5.48152 23.707 5.29292ZM17.122 11.4639L11.05 17.5359C10.5868 18.0015 10.0359 18.3707 9.42912 18.622C8.82234 18.8732 8.17175 19.0017 7.51499 18.9999H5V16.4849C5.0003 16.1573 5.03211 15.8305 5.095 15.5089L6.295 16.7089C6.38724 16.8044 6.49759 16.8806 6.61959 16.933C6.74159 16.9854 6.87281 17.013 7.00559 17.0142C7.13837 17.0153 7.27005 16.99 7.39295 16.9397C7.51585 16.8895 7.6275 16.8152 7.72139 16.7213C7.81528 16.6274 7.88954 16.5158 7.93982 16.3929C7.9901 16.27 8.0154 16.1383 8.01425 16.0055C8.01309 15.8727 7.98551 15.7415 7.9331 15.6195C7.88069 15.4975 7.80451 15.3872 7.70899 15.2949L5.968 13.5539C6.11873 13.3412 6.28591 13.1405 6.468 12.9539L7.49999 11.9139L9.29299 13.7069C9.4816 13.8891 9.7342 13.9899 9.9964 13.9876C10.2586 13.9853 10.5094 13.8801 10.6948 13.6947C10.8802 13.5093 10.9854 13.2585 10.9877 12.9963C10.9899 12.7341 10.8892 12.4815 10.707 12.2929L8.91399 10.4999L10.5 8.91392L12.293 10.7069C12.4816 10.8891 12.7342 10.9899 12.9964 10.9876C13.2586 10.9853 13.5094 10.8801 13.6948 10.6947C13.8802 10.5093 13.9854 10.2585 13.9877 9.99632C13.9899 9.73412 13.8892 9.48152 13.707 9.29292L11.914 7.49992L12.536 6.87792C13.1076 6.33274 13.8671 6.02858 14.657 6.02858C15.4469 6.02858 16.2064 6.33274 16.778 6.87792L17.122 7.22192C17.6844 7.7845 18.0004 8.54743 18.0004 9.34292C18.0004 10.1384 17.6844 10.9013 17.122 11.4639Z" fill="black"/>
</g>
<defs>
<clipPath id="clip0_937_7084">
<rect width="24" height="24" fill="white"/>
</clipPath>
</defs>
</svg>
