<svg width="24" height="24" viewBox="0 0 24 24" fill="none" xmlns="http://www.w3.org/2000/svg">
<path d="M16 5L19 8L17 9L21 13L18 14L22 18H13" stroke="black" stroke-width="2" stroke-linecap="round" stroke-linejoin="round"/>
<path d="M15 21V18" stroke="black" stroke-width="2" stroke-linecap="round" stroke-linejoin="round"/>
<path d="M8 13L6 11" stroke="black" stroke-width="2" stroke-linecap="round" stroke-linejoin="round"/>
<path d="M8 12L10 10" stroke="black" stroke-width="2" stroke-linecap="round" stroke-linejoin="round"/>
<path d="M8 21V8" stroke="black" stroke-width="2" stroke-linecap="round" stroke-linejoin="round"/>
<path d="M5.824 15.9951C5.38648 15.9694 4.95987 15.8483 4.57421 15.6401C4.18854 15.4319 3.85318 15.1417 3.59171 14.7899C3.33024 14.4382 3.14901 14.0334 3.06078 13.6041C2.97255 13.1748 2.97945 12.7314 3.081 12.3051C2.71809 12.0034 2.43151 11.6203 2.24459 11.187C2.05767 10.7537 1.97569 10.2823 2.00532 9.81134C2.03494 9.34035 2.17534 8.88301 2.41508 8.47652C2.65483 8.07003 2.98715 7.72588 3.385 7.47206C3.03638 6.85272 2.91896 6.12971 3.05367 5.43187C3.18838 4.73403 3.56647 4.10668 4.12057 3.6616C4.67467 3.21651 5.3688 2.98261 6.07927 3.00156C6.78974 3.0205 7.47041 3.29108 8 3.76506C8.52972 3.29183 9.21016 3.0219 9.92023 3.00331C10.6303 2.98473 11.3239 3.21871 11.8777 3.66359C12.4314 4.10848 12.8093 4.73541 12.9442 5.43281C13.079 6.13022 12.962 6.85284 12.614 7.47206C13.0121 7.72565 13.3447 8.06968 13.5846 8.47613C13.8246 8.88259 13.9652 9.33997 13.9949 9.81104C14.0246 10.2821 13.9427 10.7535 13.7557 11.1869C13.5688 11.6203 13.2821 12.0034 12.919 12.3051C13.024 12.7459 13.0277 13.2047 12.93 13.6472C12.8323 14.0896 12.6356 14.5042 12.3547 14.8597C12.0738 15.2153 11.716 15.5026 11.3082 15.7001C10.9004 15.8976 10.4531 16.0002 10 16.0001H10.001H6.001L5.824 15.9951Z" stroke="black" stroke-width="2" stroke-linecap="round" stroke-linejoin="round"/>
</svg>
