<svg width="24" height="24" viewBox="0 0 24 24" fill="none" xmlns="http://www.w3.org/2000/svg">
<path d="M7 19C8.10457 19 9 18.1046 9 17C9 15.8954 8.10457 15 7 15C5.89543 15 5 15.8954 5 17C5 18.1046 5.89543 19 7 19Z" stroke="black" stroke-width="2" stroke-linecap="round" stroke-linejoin="round"/>
<path d="M15.585 15.5859C15.3991 15.7715 15.2516 15.9918 15.1509 16.2344C15.0502 16.477 14.9982 16.737 14.998 16.9997C14.9975 17.5301 15.2078 18.039 15.5825 18.4144C15.9573 18.7899 16.4658 19.001 16.9962 19.0015C17.5267 19.002 18.0356 18.7917 18.411 18.4169" stroke="black" stroke-width="2" stroke-linecap="round" stroke-linejoin="round"/>
<path d="M13 6H18L21 11M5 17H3V6C3 5.73478 3.10536 5.48043 3.29289 5.29289C3.48043 5.10536 3.73478 5 4 5H5V17ZM8.96 5H13V9L8.96 5ZM13 13V17V13ZM9 17H15H9ZM21 17V11H15L21 17Z" stroke="black" stroke-width="2" stroke-linecap="round" stroke-linejoin="round"/>
<path d="M3 3L21 21" stroke="black" stroke-width="2" stroke-linecap="round" stroke-linejoin="round"/>
</svg>
