<svg width="24" height="24" viewBox="0 0 24 24" fill="none" xmlns="http://www.w3.org/2000/svg">
<path d="M8.172 8.16391C8.36162 8.78469 8.69911 9.35015 9.15547 9.81174C9.61183 10.2733 10.1734 10.6172 10.792 10.8139M14.274 10.2909C14.7556 9.95813 15.1584 9.5237 15.4537 9.01826C15.7491 8.51282 15.93 7.94871 15.9835 7.36575C16.037 6.78278 15.9619 6.19517 15.7635 5.64439C15.5651 5.09362 15.2483 4.59311 14.8353 4.17819C14.4223 3.76327 13.9233 3.44406 13.3734 3.24309C12.8236 3.04212 12.2363 2.96429 11.6531 3.01509C11.0699 3.0659 10.505 3.2441 9.99814 3.53712C9.49133 3.83014 9.05502 4.23083 8.72 4.71091L14.274 10.2909Z" stroke="black" stroke-width="2" stroke-linecap="round" stroke-linejoin="round"/>
<path d="M17.832 17.848C17.9439 18.2218 18.0005 18.6099 18 19V21M6 21V19C6 17.9391 6.42143 16.9217 7.17157 16.1716C7.92172 15.4214 8.93913 15 10 15H14C14.3884 14.9997 14.7748 15.0559 15.147 15.167L6 21Z" stroke="black" stroke-width="2" stroke-linecap="round" stroke-linejoin="round"/>
<path d="M3 3L21 21" stroke="black" stroke-width="2" stroke-linecap="round" stroke-linejoin="round"/>
</svg>
