<svg width="24" height="24" viewBox="0 0 24 24" fill="none" xmlns="http://www.w3.org/2000/svg">
<path d="M3 3L21 21" stroke="black" stroke-width="2" stroke-linecap="round" stroke-linejoin="round"/>
<path d="M16.913 12.9359C17.0656 12.1366 17.0207 11.3121 16.7824 10.5341C16.5441 9.75603 16.1194 9.04791 15.5454 8.47118C14.9713 7.89446 14.2651 7.46656 13.4882 7.22463C12.7113 6.9827 11.887 6.93405 11.087 7.08291M8.46901 8.45991C7.53576 9.39715 7.01189 10.666 7.01209 11.9886C7.01228 13.3113 7.53653 14.5799 8.47006 15.5169C9.40358 16.4539 10.6703 16.9828 11.993 16.9878C13.3156 16.9929 14.5863 16.4737 15.527 15.5439L8.46901 8.45991Z" stroke="black" stroke-width="2" stroke-linecap="round" stroke-linejoin="round"/>
<path d="M11 3H13M12 7V3V7Z" stroke="black" stroke-width="2" stroke-linecap="round" stroke-linejoin="round"/>
<path d="M17.6569 4.92896L19.0711 6.34317M15.5355 8.46449L18.364 5.63606L15.5355 8.46449Z" stroke="black" stroke-width="2" stroke-linecap="round" stroke-linejoin="round"/>
<path d="M21 11V13M17 12H21H17Z" stroke="black" stroke-width="2" stroke-linecap="round" stroke-linejoin="round"/>
<path d="M18.364 18.364L17.6568 19.0711" stroke="black" stroke-width="2" stroke-linecap="round" stroke-linejoin="round"/>
<path d="M13 21H11M12 17V21V17Z" stroke="black" stroke-width="2" stroke-linecap="round" stroke-linejoin="round"/>
<path d="M6.34314 19.071L4.92893 17.6568M8.46446 15.5355L5.63603 18.3639L8.46446 15.5355Z" stroke="black" stroke-width="2" stroke-linecap="round" stroke-linejoin="round"/>
<path d="M3 13L3 11M7 12H3H7Z" stroke="black" stroke-width="2" stroke-linecap="round" stroke-linejoin="round"/>
<path d="M5.63603 5.63615L4.92892 6.34326" stroke="black" stroke-width="2" stroke-linecap="round" stroke-linejoin="round"/>
</svg>
