<svg width="24" height="24" viewBox="0 0 24 24" fill="none" xmlns="http://www.w3.org/2000/svg">
<path d="M12 18H12.01" stroke="black" stroke-width="2" stroke-linecap="round" stroke-linejoin="round"/>
<path d="M9.172 15.1721C9.92211 14.4222 10.9393 14.001 12 14.001C13.0607 14.001 14.0779 14.4222 14.828 15.1721" stroke="black" stroke-width="2" stroke-linecap="round" stroke-linejoin="round"/>
<path d="M14.37 10.3579C15.6126 10.7459 16.7412 11.4326 17.657 12.3579M6.343 12.3429C7.40343 11.2795 8.74297 10.5376 10.207 10.2029L6.343 12.3429Z" stroke="black" stroke-width="2" stroke-linecap="round" stroke-linejoin="round"/>
<path d="M10.16 6.14C12.0251 5.8508 13.9321 6.00562 15.7261 6.59187C17.5201 7.17811 19.1506 8.17927 20.485 9.514M3.515 9.515C4.53844 8.48943 5.73915 7.65767 7.059 7.06L3.515 9.515Z" stroke="black" stroke-width="2" stroke-linecap="round" stroke-linejoin="round"/>
<path d="M3 3L21 21" stroke="black" stroke-width="2" stroke-linecap="round" stroke-linejoin="round"/>
</svg>
