<svg width="24" height="24" viewBox="0 0 24 24" fill="none" xmlns="http://www.w3.org/2000/svg">
<path d="M12 21C12.5523 21 13 20.5523 13 20C13 19.4477 12.5523 19 12 19C11.4477 19 11 19.4477 11 20C11 20.5523 11.4477 21 12 21Z" stroke="black" stroke-width="2" stroke-linecap="round" stroke-linejoin="round"/>
<path d="M3 11L8.5 16.5C9.43464 15.5839 10.6912 15.0707 12 15.0707C13.3088 15.0707 14.5654 15.5839 15.5 16.5L21 11C19.8739 9.72312 18.489 8.70048 16.9373 8C15.3855 7.29953 13.7025 6.93726 12 6.93726C10.2975 6.93726 8.61447 7.29953 7.06275 8C5.51102 8.70048 4.1261 9.72312 3 11" stroke="black" stroke-width="2" stroke-linecap="round" stroke-linejoin="round"/>
<path d="M12 20V6" stroke="black" stroke-width="2" stroke-linecap="round" stroke-linejoin="round"/>
<path d="M4.00001 5.99995C3.99134 5.37699 4.12831 4.76061 4.40001 4.19995" stroke="black" stroke-width="2" stroke-linecap="round" stroke-linejoin="round"/>
<path d="M7 2.09992C7.65591 1.93056 8.34409 1.93056 9 2.09992" stroke="black" stroke-width="2" stroke-linecap="round" stroke-linejoin="round"/>
<path d="M12 5.99995C12.0087 5.37699 11.8717 4.76061 11.6 4.19995" stroke="black" stroke-width="2" stroke-linecap="round" stroke-linejoin="round"/>
<path d="M12 5.99995C11.9913 5.37699 12.1283 4.76061 12.4 4.19995" stroke="black" stroke-width="2" stroke-linecap="round" stroke-linejoin="round"/>
<path d="M15 2.09992C15.6559 1.93056 16.3441 1.93056 17 2.09992" stroke="black" stroke-width="2" stroke-linecap="round" stroke-linejoin="round"/>
<path d="M20 5.99995C20.0087 5.37699 19.8717 4.76061 19.6 4.19995" stroke="black" stroke-width="2" stroke-linecap="round" stroke-linejoin="round"/>
</svg>
