<svg width="24" height="24" viewBox="0 0 24 24" fill="none" xmlns="http://www.w3.org/2000/svg">
<path d="M12 19C12.5523 19 13 18.5523 13 18C13 17.4477 12.5523 17 12 17C11.4477 17 11 17.4477 11 18C11 18.5523 11.4477 19 12 19Z" stroke="black" stroke-width="2" stroke-linecap="round" stroke-linejoin="round"/>
<path d="M3 9L8.5 14.5C9.43464 13.5839 10.6912 13.0707 12 13.0707C13.3088 13.0707 14.5654 13.5839 15.5 14.5L21 9C19.8739 7.72312 18.489 6.70048 16.9373 6C15.3855 5.29953 13.7025 4.93726 12 4.93726C10.2975 4.93726 8.61447 5.29953 7.06275 6C5.51102 6.70048 4.1261 7.72312 3 9" stroke="black" stroke-width="2" stroke-linecap="round" stroke-linejoin="round"/>
<path d="M12 18L9.79999 5.19995" stroke="black" stroke-width="2" stroke-linecap="round" stroke-linejoin="round"/>
</svg>
