<svg width="24" height="24" viewBox="0 0 24 24" fill="none" xmlns="http://www.w3.org/2000/svg">
<path d="M10 17C13.866 17 17 13.866 17 10C17 6.13401 13.866 3 10 3C6.13401 3 3 6.13401 3 10C3 13.866 6.13401 17 10 17Z" stroke="black" stroke-width="2" stroke-linecap="round" stroke-linejoin="round"/>
<path d="M21 21L15 15" stroke="black" stroke-width="2" stroke-linecap="round" stroke-linejoin="round"/>
<path d="M10 13V13.01" stroke="black" stroke-width="2" stroke-linecap="round" stroke-linejoin="round"/>
<path d="M9.99999 10C10.2517 10.0001 10.4994 9.93691 10.7202 9.81618C10.9411 9.69545 11.128 9.52108 11.2638 9.30914C11.3996 9.0972 11.4798 8.85449 11.4972 8.60339C11.5145 8.35228 11.4684 8.10085 11.3631 7.87225C11.2577 7.64365 11.0966 7.44523 10.8944 7.29527C10.6922 7.14532 10.4556 7.04864 10.2063 7.01415C9.95695 6.97966 9.70295 7.00847 9.46768 7.09791C9.23241 7.18736 9.02342 7.33458 8.85999 7.526" stroke="black" stroke-width="2" stroke-linecap="round" stroke-linejoin="round"/>
</svg>
